<svg width="64" height="64" viewBox="0 0 64 64" fill="none" xmlns="http://www.w3.org/2000/svg">
<path d="M8 41L25 33L32 35L39 33L56 41C59.067 42.2 61 46.167 61 49.46V57C61 58.105 60.105 59 59 59H5C3.895 59 3 58.105 3 57V49.46C3 46.167 4.933 42.2 8 41Z" fill="#DC3545"/>
<path d="M32 45C37.16 45 43 42 46 36L39 33L32 35L26 33L18 36C20.926 40.076 26.84 45 32 45Z" fill="#B82F3D"/>
<path d="M59 60H5C3.346 60 2 58.654 2 57V49.328C2 45.099 4.469 41.197 8.291 39.387L24.855 31.969L32 32.99L39.145 31.969L55.689 39.378C59.531 41.197 62 45.1 62 49.328V57C62 58.654 60.654 60 59 60ZM9.138 41.199C6.016 42.682 4 45.872 4 49.328V57C4 57.551 4.449 58 5 58H59C59.551 58 60 57.551 60 57V49.328C60 45.868 57.979 42.676 54.853 41.195L38.855 34.031L32 35.01L25.145 34.031L9.138 41.199Z" fill="#221122"/>
<path d="M44.921 19.612C44.697 17.268 44.061 14.776 44.364 13.664C44.553 12.97 44 13 47 14C43 4 37.839 3 32 3C28.609 3 26.088 3.584 24 5C19.438 5 18.844 12.205 18.775 19.134C17.69 18.721 17 19.543 17 21C17 22.578 18.011 25.931 20 27C21.529 34.461 27 39 32 39C37 39 42 34 44 27C46.22 26.056 47 22.643 47 21C47 19.273 46.306 18.532 44.921 19.612Z" fill="#FAEFDE"/>
<path d="M26 11C29 13 35.353 14 38 14C41.888 14 42 14 44 14C44 14 46 13 47 14C44 5 37.058 3 34 3H30C28.388 3 26 4 25 5C22.195 4.104 19 7.492 19 12V18C22 17 25 12 26 11Z" fill="#60493D"/>
<path d="M27.92 12.88C30.784 14.27 33.926 14.995 37.11 15H39.66C40.212 15 40.66 14.552 40.66 14C40.66 13.448 40.212 13 39.66 13H37.11C34.227 12.996 31.383 12.339 28.79 11.08L27.23 10.32C26.325 9.878 25.232 10.178 24.68 11.02L23.08 13.45C22.784 13.916 22.922 14.534 23.388 14.83C23.843 15.119 24.446 14.995 24.75 14.55L26.35 12.12L27.92 12.88Z" fill="#221122"/>
<path d="M46.28 18.12C46.139 18.084 45.995 18.064 45.85 18.06C45.678 16.881 45.37 15.727 44.93 14.62V14.51C45.404 14.567 45.868 14.688 46.31 14.87C46.82 15.082 47.405 14.84 47.617 14.33C47.696 14.14 47.714 13.93 47.67 13.73C46 6.41 40.56 2 33 2H32C29.43 2.011 26.908 2.701 24.69 4C21 4.14 18.42 6.76 18 10.9C17.815 12.765 17.859 14.646 18.13 16.5C18.184 16.831 18.214 17.165 18.22 17.5C18.22 17.687 18.19 17.873 18.13 18.06C17.982 18.064 17.834 18.084 17.69 18.12C16.04 18.56 15.35 20.97 16.09 23.73C16.63 25.73 17.75 27.23 18.97 27.73C19.593 29.588 20.45 31.358 21.52 33L21.517 33.002C21.821 33.618 22.7 34.68 22.7 34.68C25.16 37.79 28.4 40 32 40C35.584 40 38.811 37.808 41.267 34.729C41.635 34.271 42.48 33 42.48 33C43.539 31.357 44.386 29.586 45 27.73C46.23 27.27 47.35 25.73 47.88 23.73C48.62 20.98 47.88 18.57 46.28 18.12ZM45.95 23.25C45.45 25.1 44.51 25.87 44.22 25.87C43.761 25.852 43.348 26.149 43.22 26.59C41.59 32.26 37.18 38 32 38C26.82 38 22.41 32.26 20.72 26.6C20.597 26.177 20.211 25.884 19.77 25.88H19.75C19.46 25.88 18.51 25.1 18.02 23.26C17.53 21.42 17.97 20.17 18.2 20.11C18.299 20.127 18.391 20.168 18.47 20.23C18.938 20.523 19.555 20.382 19.848 19.914C19.939 19.768 19.991 19.602 20 19.43C20.024 18.914 20.081 18.399 20.17 17.89C20.222 17.342 20.195 16.79 20.09 16.25C19.851 14.543 19.821 12.814 20 11.1C20.31 7.91 22.19 6 25 6C25.216 6 25.427 5.93 25.6 5.8C27.523 4.613 29.74 3.99 32 4H33C39.07 4 43.45 7.1 45.25 12.58C44.577 12.449 43.88 12.625 43.35 13.06C42.774 13.687 42.657 14.61 43.06 15.36C43.593 16.654 43.898 18.032 43.96 19.43C43.988 19.982 44.458 20.406 45.009 20.378C45.183 20.369 45.353 20.315 45.499 20.22C45.579 20.16 45.671 20.119 45.769 20.1C46.01 20.18 46.45 21.4 45.95 23.25Z" fill="#221122"/>
<path d="M7 56C6.448 56 6 55.552 6 55V53C6 52.448 6.448 52 7 52C7.552 52 8 52.448 8 53V55C8 55.552 7.552 56 7 56ZM37 56C36.448 56 36 55.552 36 55V53C36 52.448 36.448 52 37 52C37.552 52 38 52.448 38 53V55C38 55.552 37.552 56 37 56ZM42 56C41.448 56 41 55.552 41 55V53C41 52.448 41.448 52 42 52C42.552 52 43 52.448 43 53V55C43 55.552 42.552 56 42 56ZM52 56C51.448 56 51 55.552 51 55V53C51 52.448 51.448 52 52 52C52.552 52 53 52.448 53 53V55C53 55.552 52.552 56 52 56ZM57 56C56.448 56 56 55.552 56 55V53C56 52.448 56.448 52 57 52C57.552 52 58 52.448 58 53V55C58 55.552 57.552 56 57 56ZM47 56C46.448 56 46 55.552 46 55V53C46 52.448 46.448 52 47 52C47.552 52 48 52.448 48 53V55C48 55.552 47.552 56 47 56ZM12 56C11.448 56 11 55.552 11 55V53C11 52.448 11.448 52 12 52C12.552 52 13 52.448 13 53V55C13 55.552 12.552 56 12 56ZM17 56C16.448 56 16 55.552 16 55V53C16 52.448 16.448 52 17 52C17.552 52 18 52.448 18 53V55C18 55.552 17.552 56 17 56ZM22 56C21.448 56 21 55.552 21 55V53C21 52.448 21.448 52 22 52C22.552 52 23 52.448 23 53V55C23 55.552 22.552 56 22 56ZM27 56C26.448 56 26 55.552 26 55V53C26 52.448 26.448 52 27 52C27.552 52 28 52.448 28 53V55C28 55.552 27.552 56 27 56ZM32 56C31.448 56 31 55.552 31 55V53C31 52.448 31.448 52 32 52C32.552 52 33 52.448 33 53V55C33 55.552 32.552 56 32 56Z" fill="#221122"/>
</svg>
