<svg width="49" height="50" viewBox="0 0 49 50" fill="none" xmlns="http://www.w3.org/2000/svg">
<g clip-path="url(#clip0)">
<path d="M5.91447 9.18777V42.0617C5.91447 43.1612 5.58698 44.2347 4.97534 45.1398C3.8649 46.7833 5.01774 49.0234 6.974 49.0234H18.6209H18.7107H30.3575C32.3138 49.0234 33.4667 46.7833 32.3563 45.1399C31.7447 44.2347 31.4172 43.1612 31.4172 42.0618V10.1562L5.91447 9.18777Z" fill="#FFF8EE"/>
<path d="M5.91467 19.1731H31.4173V36.2305V39.8438C31.4173 42.0011 29.7033 43.75 27.5891 43.75H9.7428C7.62862 43.75 5.91467 42.0011 5.91467 39.8438V36.2305V19.1731Z" fill="#DC3545"/>
<path d="M31.4829 8.72227C31.2721 6.73603 29.7289 5.21348 27.7771 5.05742C26.5791 4.96162 25.4809 5.39814 24.6829 6.1585C24.2178 3.22051 21.7218 0.976562 18.7114 0.976562C15.7006 0.976562 13.2045 3.221 12.7398 6.15937C11.9418 5.39853 10.8434 4.96172 9.64524 5.05732C7.69309 5.21309 6.14959 6.73574 5.93885 8.72227C5.67442 11.2155 7.5815 13.3239 9.9713 13.3239H15.8892C17.4138 13.3239 18.6498 14.5851 18.6498 16.1408V21.9133C18.6498 23.5609 19.9157 24.9537 21.5298 24.9988C23.2045 25.0457 24.5765 23.6744 24.5765 21.9762V16.1635C24.5765 14.572 25.8573 13.3108 27.4169 13.3237C27.4281 13.3238 27.4394 13.3238 27.4506 13.3238C29.8402 13.3239 31.7474 11.2155 31.4829 8.72227V8.72227Z" fill="#FFA9B1"/>
<path d="M34.5496 11.3933H31.5073V16.0808H34.5496C37.4784 16.0808 39.8612 18.5121 39.8612 21.5007V31.4616C39.8612 34.4502 37.4784 36.8816 34.5496 36.8816H31.5073V41.5691H34.5496C40.0114 41.5691 44.4549 37.0349 44.4549 31.4616V21.5007C44.4549 15.9274 40.0115 11.3933 34.5496 11.3933V11.3933Z" fill="#FFF8EE"/>
<path d="M34.5497 10.4167H32.3133C32.4549 9.83516 32.4989 9.22637 32.4343 8.61719C32.176 6.18203 30.2487 4.27549 27.8518 4.08389C26.9499 4.01191 26.0517 4.19102 25.253 4.5877C24.8394 3.49004 24.162 2.50293 23.2753 1.72529C22.0069 0.612695 20.386 0 18.7112 0C17.0364 0 15.4154 0.612793 14.1469 1.72549C13.2602 2.50313 12.583 3.49033 12.1695 4.58809C11.3708 4.19121 10.4728 4.01201 9.57045 4.08379C7.17309 4.2752 5.24553 6.18174 4.98723 8.61719C4.96704 8.80801 4.95794 8.99873 4.95852 9.18867L4.95756 9.18779V42.0617C4.95756 42.9673 4.69132 43.84 4.18753 44.5855C3.47139 45.6455 3.39081 47.0121 3.97756 48.152C4.56413 49.2919 5.71237 50 6.97412 50H18.621C18.6361 50 18.6509 49.9984 18.6659 49.9977C18.6809 49.9983 18.6956 50 18.7108 50H30.3576C31.6194 50 32.7676 49.2919 33.3544 48.1521C33.9411 47.0122 33.8606 45.6456 33.1443 44.5855C32.731 43.9738 32.4779 43.2764 32.4001 42.5455H34.5497C40.5392 42.5455 45.412 37.5732 45.412 31.4615V21.5006C45.412 15.389 40.5392 10.4167 34.5497 10.4167ZM30.4601 18.1966H25.5333V16.1635C25.5333 15.6674 25.7234 15.2018 26.0686 14.8523C26.4245 14.4921 26.9014 14.2948 27.4087 14.3003L27.4505 14.3005C28.543 14.3005 29.5984 13.9334 30.4602 13.2738V18.1966H30.4601ZM32.3742 17.0573H34.5497C36.9508 17.0573 38.9042 19.0506 38.9042 21.5007V31.4616C38.9042 33.9117 36.9508 35.905 34.5497 35.905H32.3742V17.0573ZM6.89019 8.82744C7.05212 7.30098 8.21568 6.15107 9.71975 6.03105C9.80454 6.02432 9.88886 6.0209 9.97269 6.0209C10.7621 6.0209 11.5048 6.31855 12.0863 6.87305C12.3446 7.11924 12.7149 7.20029 13.0495 7.0835C13.3839 6.9667 13.6281 6.67129 13.6844 6.31514C14.0842 3.7876 16.1983 1.95312 18.7112 1.95312C21.2238 1.95312 23.3379 3.78721 23.738 6.31426C23.7943 6.67031 24.0385 6.96563 24.3729 7.08252C24.7072 7.19932 25.0775 7.11846 25.3359 6.87236C25.9793 6.25928 26.8195 5.96064 27.7023 6.03105C29.206 6.15127 30.3694 7.30117 30.5313 8.82744C30.6284 9.74238 30.3539 10.6191 29.7583 11.2962C29.1705 11.9643 28.3294 12.3475 27.4504 12.3475L27.4244 12.3474C26.403 12.3388 25.4417 12.736 24.7206 13.4658C24.0104 14.1847 23.6193 15.1428 23.6193 16.1636V21.9762C23.6193 22.5336 23.4036 23.0548 23.0119 23.4437C22.6203 23.8323 22.1038 24.0377 21.5558 24.0228C20.481 23.9927 19.6065 23.0464 19.6065 21.9133V16.1408C19.6065 14.0491 17.9389 12.3474 15.8891 12.3474H9.97116C9.09213 12.3474 8.25099 11.9642 7.66338 11.2961C7.06772 10.619 6.79315 9.74228 6.89019 8.82744V8.82744ZM17.6925 18.1966H6.87162V13.2035C7.74922 13.9074 8.84043 14.3004 9.97116 14.3004H15.8891C16.8835 14.3004 17.6925 15.126 17.6925 16.1407V18.1966ZM31.6597 47.2438C31.4009 47.7467 30.9142 48.0469 30.3576 48.0469H18.7108C18.6956 48.0469 18.6809 48.0484 18.6659 48.0492C18.6509 48.0485 18.6361 48.0469 18.621 48.0469H6.97412C6.41761 48.0469 5.93077 47.7467 5.67208 47.2438C5.4133 46.7411 5.44737 46.1617 5.76338 45.6942C6.19749 45.0519 6.50795 44.3435 6.68816 43.599C7.51743 44.3026 8.58241 44.7266 9.74272 44.7266H14.3592C14.8878 44.7266 15.3163 44.2894 15.3163 43.75C15.3163 43.2106 14.8878 42.7734 14.3592 42.7734H9.74272C8.1596 42.7734 6.87162 41.4592 6.87162 39.8438V20.1497H17.6925V21.9132C17.6925 24.0941 19.402 25.9162 21.5034 25.975C21.5405 25.9761 21.5775 25.9766 21.6144 25.9766C22.6416 25.9766 23.6082 25.5767 24.3466 24.8435C25.1119 24.0837 25.5333 23.0653 25.5333 21.9761V20.1497H30.46V39.8438C30.46 41.4592 29.1721 42.7734 27.589 42.7734H22.9725C22.444 42.7734 22.0155 43.2106 22.0155 43.75C22.0155 44.2894 22.444 44.7266 22.9725 44.7266H27.5891C28.7494 44.7266 29.8143 44.3026 30.6437 43.599C30.8238 44.3436 31.1344 45.0519 31.5685 45.6942C31.8844 46.1618 31.9185 46.7411 31.6597 47.2438ZM43.498 31.4616C43.498 36.4964 39.4838 40.5925 34.5497 40.5925H32.3742V37.8581H34.5497C38.0062 37.8581 40.8183 34.9887 40.8183 31.4616V21.5007C40.8183 17.9736 38.0062 15.1042 34.5497 15.1042H32.3742V12.3698H34.5497C39.4838 12.3698 43.498 16.4659 43.498 21.5007V31.4616Z" fill="#221122"/>
<path d="M18.6655 42.7734C18.4138 42.7734 18.1679 42.8779 17.9889 43.0596C17.8109 43.2412 17.7085 43.4932 17.7085 43.75C17.7085 44.0068 17.8109 44.2588 17.9889 44.4404C18.1679 44.6221 18.4138 44.7266 18.6655 44.7266C18.9182 44.7266 19.1641 44.6221 19.3421 44.4404C19.5211 44.2588 19.6226 44.0068 19.6226 43.75C19.6226 43.4932 19.5211 43.2412 19.3421 43.0596C19.1641 42.8779 18.9182 42.7734 18.6655 42.7734Z" fill="#221122"/>
</g>
<defs>
<clipPath id="clip0">
<rect width="49" height="50" fill="white"/>
</clipPath>
</defs>
</svg>
