<svg width="50" height="50" viewBox="0 0 50 50" fill="none" xmlns="http://www.w3.org/2000/svg">
<path d="M39.8438 5.66422H10.1562C7.99893 5.66422 6.25 7.41314 6.25 9.57047V37.3048C6.25 39.4622 7.99893 41.2111 10.1562 41.2111H39.8438C42.0011 41.2111 43.75 39.4622 43.75 37.3048V9.57047C43.75 7.41304 42.0011 5.66422 39.8438 5.66422V5.66422Z" fill="#B82F3D"/>
<path d="M32.0312 0.976562L35.2539 5.66416L33.2949 15.2891L25 12.3047L16.7051 15.2891L14.7461 5.66416L17.9688 0.976562H32.0312Z" fill="#FFF8EE"/>
<path d="M32.0312 0.976562L25 12.3047L17.9688 0.976562H32.0312Z" fill="#DC3545"/>
<path d="M31.8359 21.582H43.75V25.8789H31.8359V21.582Z" fill="#FFF8EE"/>
<path d="M39.8438 4.6876H35.7676L32.8359 0.42334C32.6538 0.158301 32.3528 0 32.0312 0H17.9688C17.6472 0 17.3462 0.158301 17.1641 0.42334L14.2324 4.6876H10.1562C7.46387 4.6876 5.27344 6.87803 5.27344 9.57041V19.0431C5.27344 19.5823 5.71074 20.0196 6.25 20.0196C6.78926 20.0196 7.22656 19.5823 7.22656 19.0431V9.57041C7.22656 7.95498 8.54082 6.64072 10.1562 6.64072H13.9483L15.7482 15.4839C15.8048 15.7618 15.9793 16.0014 16.2264 16.1403C16.4735 16.2794 16.7689 16.3042 17.0357 16.208L24.0234 13.6939V40.2345H10.1562C8.54082 40.2345 7.22656 38.9202 7.22656 37.3048V27.8321C7.22656 27.2929 6.78926 26.8556 6.25 26.8556C5.71074 26.8556 5.27344 27.2929 5.27344 27.8321V37.3048C5.27344 39.9972 7.46387 42.1876 10.1562 42.1876H39.8438C42.5361 42.1876 44.7266 39.9972 44.7266 37.3048V9.57041C44.7266 6.87803 42.5361 4.6876 39.8438 4.6876V4.6876ZM34.2143 5.87568L32.5631 13.988L26.4661 11.7943L32.0729 2.76104L34.2143 5.87568ZM25 10.4529L19.7242 1.95312H30.2757L25 10.4529ZM15.7857 5.87568L17.9271 2.76104L23.5339 11.7943L17.4369 13.988L15.7857 5.87568ZM39.8438 40.2345H25.9766V13.6939L32.9643 16.208C33.0716 16.2467 33.1834 16.2657 33.2949 16.2657C33.4607 16.2657 33.6259 16.2234 33.7736 16.1403C34.0207 16.0014 34.1952 15.7618 34.2518 15.4839L36.0517 6.64072H39.8438C41.4592 6.64072 42.7734 7.95498 42.7734 9.57041V20.6055H31.8359C31.2967 20.6055 30.8594 21.0428 30.8594 21.582V25.8789C30.8594 26.4182 31.2967 26.8555 31.8359 26.8555H42.7734V37.3048C42.7734 38.9202 41.4592 40.2345 39.8438 40.2345V40.2345ZM42.7734 24.9023H32.8125V22.5586H42.7734V24.9023Z" fill="#221122"/>
<path d="M44.3751 46.32L42.0313 44.3669C41.6173 44.0219 41.0014 44.0775 40.656 44.492C40.3107 44.9063 40.3667 45.5221 40.7811 45.8674L41.0527 46.0938H8.94727L9.21885 45.8675C9.6332 45.5222 9.68916 44.9064 9.34395 44.4921C8.99844 44.0776 8.38271 44.0219 7.96855 44.367L5.6248 46.3201C5.40215 46.5057 5.27344 46.7805 5.27344 47.0703C5.27344 47.3602 5.40215 47.635 5.6249 47.8206L7.96865 49.7738C8.15117 49.9259 8.37285 50 8.59326 50C8.87295 50 9.15088 49.8804 9.34404 49.6486C9.68926 49.2343 9.6333 48.6185 9.21895 48.2732L8.94727 48.0469H41.0527L40.7812 48.2732C40.3668 48.6185 40.3108 49.2343 40.6561 49.6486C40.8493 49.8804 41.127 50 41.4068 50C41.6273 50 41.8489 49.9258 42.0314 49.7738L44.3752 47.8206C44.5979 47.6351 44.7267 47.3602 44.7267 47.0703C44.7267 46.7805 44.5979 46.5057 44.3751 46.32V46.32Z" fill="#221122"/>
<path d="M6.25 24.4141C6.50684 24.4141 6.75879 24.3096 6.94033 24.1278C7.12207 23.9463 7.22656 23.6943 7.22656 23.4375C7.22656 23.1807 7.12207 22.9287 6.94033 22.7471C6.75879 22.5653 6.50684 22.4609 6.25 22.4609C5.99316 22.4609 5.74121 22.5653 5.55957 22.7471C5.37793 22.9288 5.27344 23.1807 5.27344 23.4375C5.27344 23.6943 5.37783 23.9463 5.55957 24.1278C5.74121 24.3096 5.99316 24.4141 6.25 24.4141Z" fill="#221122"/>
</svg>
