<svg width="50" height="50" viewBox="0 0 50 50" fill="none" xmlns="http://www.w3.org/2000/svg">
<g clip-path="url(#clip0)">
<path d="M35.9374 49.0232H47.656V28.955L35.9374 22.2823V49.0232Z" fill="#FFF8EE"/>
<path d="M14.0625 49.0232H2.34387V28.955L14.0625 22.2823V49.0232Z" fill="#FFF8EE"/>
<path d="M14.0624 48.7302V19.5312L24.9998 8.59375L35.9372 19.5312V48.7302H14.0624Z" fill="#DC3545"/>
<path d="M25.0001 27.5866C26.9418 27.5866 28.5158 26.0126 28.5158 24.071C28.5158 22.1294 26.9418 20.5554 25.0001 20.5554C23.0585 20.5554 21.4845 22.1294 21.4845 24.071C21.4845 26.0126 23.0585 27.5866 25.0001 27.5866Z" fill="#FFF8EE"/>
<path d="M24.9998 34.4586C21.9795 34.4586 19.5311 36.907 19.5311 39.9273V49.0233H30.4685V39.9273C30.4685 36.907 28.0201 34.4586 24.9998 34.4586Z" fill="#D1A184"/>
<path d="M49.0235 48.0485H48.6329V30.2896C48.7592 30.3449 48.8915 30.3732 49.0226 30.3732C49.369 30.3732 49.7045 30.1884 49.8815 29.8627C50.1391 29.3888 49.9637 28.7959 49.4898 28.5383L36.9142 21.7034V19.8261C36.9142 19.5671 36.8113 19.3187 36.6282 19.1356L25.9768 8.48417V4.98244H27.1487C27.6879 4.98244 28.1252 4.54524 28.1252 4.00589C28.1252 3.46654 27.6879 3.02933 27.1487 3.02933H25.9768V0.978569C25.9768 0.439218 25.5395 0.00201416 25.0002 0.00201416C24.461 0.00201416 24.0237 0.439218 24.0237 0.978569V3.02933H22.8766C22.3374 3.02933 21.9001 3.46654 21.9001 4.00589C21.9001 4.54524 22.3374 4.98244 22.8766 4.98244H24.0237V8.48417L13.3723 19.1356C13.1892 19.3187 13.0863 19.5671 13.0863 19.8261V21.7034L0.510659 28.5383C0.0367362 28.7958 -0.138556 29.3888 0.118962 29.8627C0.296012 30.1884 0.631459 30.3732 0.977843 30.3732C1.10899 30.3732 1.24132 30.3449 1.36759 30.2897V48.0486H0.976964C0.43771 48.0486 0.000408344 48.4858 0.000408344 49.0252C0.000408344 49.5645 0.43771 50.0017 0.976964 50.0017H49.0235C49.5628 50.0017 50.0001 49.5645 50.0001 49.0252C50.0001 48.4858 49.5629 48.0485 49.0235 48.0485V48.0485ZM14.0628 34.115C13.5236 34.115 13.0863 34.5522 13.0863 35.0916V48.0485H3.3207V29.234L13.0863 23.9264V26.3027C13.0863 26.842 13.5236 27.2792 14.0628 27.2792C14.6021 27.2792 15.0394 26.842 15.0394 26.3027V20.2307L25.0002 10.2698L34.9611 20.2307V48.0486H31.4455V39.929C31.4455 36.3751 28.5542 33.4838 25.0002 33.4838C21.4463 33.4838 18.555 36.3751 18.555 39.929V48.0486H15.0394V35.0917C15.0394 34.5522 14.6022 34.115 14.0628 34.115V34.115ZM20.5081 39.929C20.5081 37.7875 22.0149 35.9923 24.0237 35.5451V48.0486H20.5081V39.929ZM25.9768 48.0485V35.545C27.9856 35.9923 29.4924 37.7874 29.4924 39.9289V48.0485H25.9768ZM36.9142 48.0485V23.9264L46.6798 29.234V48.0485H36.9142Z" fill="#221122"/>
<path d="M25 28.5633C27.477 28.5633 29.4922 26.548 29.4922 24.0711C29.4922 21.5941 27.477 19.5789 25 19.5789C22.5231 19.5789 20.5078 21.5941 20.5078 24.0711C20.5078 26.548 22.5231 28.5633 25 28.5633ZM25 21.532C26.4001 21.532 27.5391 22.6711 27.5391 24.0711C27.5391 25.4711 26.4001 26.6101 25 26.6101C23.5999 26.6101 22.4609 25.4711 22.4609 24.0711C22.4609 22.671 23.5999 21.532 25 21.532Z" fill="#221122"/>
<path d="M41.7966 34.204C40.1812 34.204 38.8669 35.5182 38.8669 37.1337V42.7977C38.8669 43.3371 39.3042 43.7743 39.8435 43.7743H43.7498C44.289 43.7743 44.7263 43.3371 44.7263 42.7977V37.1337C44.7263 35.5182 43.4121 34.204 41.7966 34.204ZM42.7732 41.8212H40.8201V37.1337C40.8201 36.5952 41.2582 36.1571 41.7966 36.1571C42.3351 36.1571 42.7732 36.5952 42.7732 37.1337V41.8212Z" fill="#221122"/>
<path d="M8.20325 34.204C6.58782 34.204 5.27356 35.5182 5.27356 37.1337V42.7977C5.27356 43.3371 5.71086 43.7743 6.25012 43.7743H10.1564C10.6956 43.7743 11.1329 43.3371 11.1329 42.7977V37.1337C11.1329 35.5182 9.81868 34.204 8.20325 34.204ZM9.17981 41.8212H7.22668V37.1337C7.22668 36.5952 7.66477 36.1571 8.20325 36.1571C8.74172 36.1571 9.17981 36.5952 9.17981 37.1337V41.8212Z" fill="#221122"/>
<path d="M14.7528 30.0049C14.5713 29.8232 14.3193 29.7187 14.0625 29.7187C13.8057 29.7187 13.5537 29.8232 13.3721 30.0049C13.1904 30.1865 13.0859 30.4384 13.0859 30.6953C13.0859 30.9521 13.1903 31.2041 13.3721 31.3857C13.5537 31.5674 13.8057 31.6718 14.0625 31.6718C14.3193 31.6718 14.5713 31.5674 14.7528 31.3857C14.9345 31.2041 15.0391 30.9521 15.0391 30.6953C15.0391 30.4384 14.9346 30.1865 14.7528 30.0049Z" fill="#221122"/>
</g>
<defs>
<clipPath id="clip0">
<rect width="50" height="50" fill="white"/>
</clipPath>
</defs>
</svg>
