<svg width="49" height="50" viewBox="0 0 49 50" fill="none" xmlns="http://www.w3.org/2000/svg">
<g clip-path="url(#clip0)">
<path d="M32.7305 0.976715H24.5V4.88296H32.7305V0.976715Z" fill="#FFF8EE"/>
<path d="M35.9844 19.8244L24.5 8.10562L13.0156 19.8244V49.0235H35.9844V19.8244Z" fill="#DC3545"/>
<path d="M48.043 25.5859H35.9844V49.0234H48.043V25.5859Z" fill="#FFF8EE"/>
<path d="M13.0156 25.5859H0.957031V49.0234H13.0156V25.5859Z" fill="#FFF8EE"/>
<path d="M48.043 20.1173H35.9844V25.5861H48.043V20.1173Z" fill="#FF5D5D"/>
<path d="M13.0156 20.1173H0.957031V25.5861H13.0156V20.1173Z" fill="#FF5D5D"/>
<path d="M32.1562 37.3047H16.8438V49.0234H32.1562V37.3047Z" fill="#FFF8EE"/>
<path d="M32.1562 29.4922H16.8438V33.3984H32.1562V29.4922Z" fill="#FFF8EE"/>
<path d="M8.90039 29.4922H5.07227V33.3984H8.90039V29.4922Z" fill="#FFF8EE"/>
<path d="M8.90039 39.8438H5.07227V43.75H8.90039V39.8438Z" fill="#FFF8EE"/>
<path d="M43.7449 29.4922H39.9167V33.3984H43.7449V29.4922Z" fill="#FFF8EE"/>
<path d="M43.7449 39.8438H39.9167V43.75H43.7449V39.8438Z" fill="#FFF8EE"/>
<path d="M24.4551 23.4504C26.259 23.4504 27.7214 21.9581 27.7214 20.1173C27.7214 18.2766 26.259 16.7843 24.4551 16.7843C22.6511 16.7843 21.1887 18.2766 21.1887 20.1173C21.1887 21.9581 22.6511 23.4504 24.4551 23.4504Z" fill="#FFF8EE"/>
<path d="M18.375 15.3322C18.6267 15.3322 18.8736 15.2277 19.0516 15.0461C19.2296 14.8644 19.332 14.6125 19.332 14.3556C19.332 14.0988 19.2296 13.8468 19.0516 13.6652C18.8736 13.4836 18.6267 13.3791 18.375 13.3791C18.1233 13.3791 17.8764 13.4836 17.6984 13.6652C17.5204 13.8468 17.418 14.0988 17.418 14.3556C17.418 14.6125 17.5204 14.8644 17.6984 15.0461C17.8764 15.2276 18.1233 15.3322 18.375 15.3322Z" fill="#221122"/>
<path d="M48.043 19.1427H36.6673C36.6651 19.1405 36.6633 19.1379 36.6611 19.1358L25.457 7.70295V5.86145H32.7305C33.259 5.86145 33.6875 5.42424 33.6875 4.88489V0.978638C33.6875 0.439282 33.259 0.0020752 32.7305 0.0020752H24.5C23.9714 0.0020752 23.543 0.439282 23.543 0.978638V7.70295L19.8396 11.4819C19.4659 11.8632 19.4659 12.4816 19.8396 12.863C20.2134 13.2444 20.8194 13.2444 21.1932 12.863L24.5 9.4886L35.0273 20.2308V48.0489H33.1133V37.3067C33.1133 36.7674 32.6848 36.3301 32.1562 36.3301H16.8438C16.3152 36.3301 15.8867 36.7674 15.8867 37.3067V48.0489H13.9727V20.2308L16.8745 17.2698C17.2482 16.8884 17.2482 16.27 16.8745 15.8886C16.5007 15.5073 15.8948 15.5073 15.5209 15.8886L12.3388 19.1357C12.3366 19.1379 12.3348 19.1404 12.3326 19.1426H0.957031C0.428463 19.1426 0 19.5798 0 20.1192V49.0254C0 49.5647 0.428463 50.002 0.957031 50.002H48.043C48.5715 50.002 49 49.5647 49 49.0254V20.1193C49 19.5799 48.5715 19.1427 48.043 19.1427ZM31.7734 3.90833H25.457V1.9552H31.7734V3.90833ZM1.91406 21.0958H12.0586V24.6115H1.91406V21.0958ZM1.91406 26.5645H12.0586V48.0489H1.91406V26.5645ZM47.0859 24.6115H36.9414V21.0958H47.0859V24.6115ZM17.8008 38.2832H23.543V48.0489H17.8008V38.2832ZM25.457 48.0489V38.2832H31.1992V48.0489H25.457ZM47.0859 48.0489H36.9414V26.5645H47.0859V48.0489Z" fill="#221122"/>
<path d="M28.6784 20.1172C28.6784 17.7411 26.7839 15.808 24.4553 15.808C22.1266 15.808 20.2322 17.7411 20.2322 20.1172C20.2322 22.4934 22.1266 24.4265 24.4553 24.4265C26.7839 24.4265 28.6784 22.4934 28.6784 20.1172ZM24.4553 22.4734C23.182 22.4734 22.1462 21.4164 22.1462 20.1172C22.1462 18.818 23.182 17.7611 24.4553 17.7611C25.7285 17.7611 26.7643 18.818 26.7643 20.1172C26.7643 21.4164 25.7284 22.4734 24.4553 22.4734Z" fill="#221122"/>
<path d="M15.8867 29.4922V33.3984C15.8867 33.9377 16.3152 34.375 16.8438 34.375H32.1562C32.6848 34.375 33.1133 33.9377 33.1133 33.3984V29.4922C33.1133 28.9529 32.6848 28.5156 32.1562 28.5156H28.6631C28.1345 28.5156 27.7061 28.9529 27.7061 29.4922C27.7061 30.0314 28.1345 30.4688 28.6631 30.4688H31.1992V32.4219H17.8008V30.4688H20.5762C21.1047 30.4688 21.5332 30.0314 21.5332 29.4922C21.5332 28.9529 21.1047 28.5156 20.5762 28.5156H16.8438C16.3152 28.5156 15.8867 28.953 15.8867 29.4922Z" fill="#221122"/>
<path d="M23.7783 28.8018C23.6003 28.9834 23.4979 29.2354 23.4979 29.4922C23.4979 29.749 23.6003 30.001 23.7783 30.1825C23.9563 30.3642 24.2033 30.4688 24.455 30.4688C24.7067 30.4688 24.9536 30.3643 25.1325 30.1825C25.3105 30.001 25.412 29.749 25.412 29.4922C25.412 29.2354 25.3105 28.9834 25.1325 28.8018C24.9536 28.6201 24.7076 28.5156 24.455 28.5156C24.2033 28.5156 23.9563 28.6201 23.7783 28.8018Z" fill="#221122"/>
<path d="M8.90039 28.5156H5.07227C4.5437 28.5156 4.11523 28.9529 4.11523 29.4922V33.3984C4.11523 33.9377 4.5437 34.375 5.07227 34.375H8.90039C9.42896 34.375 9.85742 33.9377 9.85742 33.3984V29.4922C9.85742 28.953 9.42896 28.5156 8.90039 28.5156ZM7.94336 32.4219H6.0293V30.4688H7.94336V32.4219Z" fill="#221122"/>
<path d="M8.90039 38.8672H5.07227C4.5437 38.8672 4.11523 39.3045 4.11523 39.8438V43.75C4.11523 44.2893 4.5437 44.7266 5.07227 44.7266H8.90039C9.42896 44.7266 9.85742 44.2893 9.85742 43.75V39.8438C9.85742 39.3046 9.42896 38.8672 8.90039 38.8672ZM7.94336 42.7734H6.0293V40.8203H7.94336V42.7734Z" fill="#221122"/>
<path d="M39.9164 34.375H43.7445C44.2731 34.375 44.7015 33.9377 44.7015 33.3984V29.4922C44.7015 28.9529 44.2731 28.5156 43.7445 28.5156H39.9164C39.3878 28.5156 38.9594 28.9529 38.9594 29.4922V33.3984C38.9594 33.9378 39.3878 34.375 39.9164 34.375ZM40.8734 30.4688H42.7875V32.4219H40.8734V30.4688Z" fill="#221122"/>
<path d="M39.9164 44.7266H43.7445C44.2731 44.7266 44.7015 44.2893 44.7015 43.75V39.8438C44.7015 39.3045 44.2731 38.8672 43.7445 38.8672H39.9164C39.3878 38.8672 38.9594 39.3045 38.9594 39.8438V43.75C38.9594 44.2894 39.3878 44.7266 39.9164 44.7266ZM40.8734 40.8203H42.7875V42.7734H40.8734V40.8203Z" fill="#221122"/>
</g>
<defs>
<clipPath id="clip0">
<rect width="49" height="50" fill="white"/>
</clipPath>
</defs>
</svg>
