<svg width="50" height="50" viewBox="0 0 50 50" fill="none" xmlns="http://www.w3.org/2000/svg">
<g clip-path="url(#clip0)">
<path d="M45.1172 36.074V47.0703C45.1172 48.149 45.9916 49.0234 47.0703 49.0234C48.149 49.0234 49.0234 48.149 49.0234 47.0703V0.976562C44.5047 4.02979 41.7969 9.12734 41.7969 14.5809V27.252C41.7969 28.3424 42.2301 29.3882 43.0011 30.1593L45.1172 32.2754V36.074Z" fill="#FFF8EE"/>
<path d="M25 42.6845C34.7669 42.6845 42.6846 34.7669 42.6846 24.9999C42.6846 15.233 34.7669 7.31537 25 7.31537C15.2331 7.31537 7.31543 15.233 7.31543 24.9999C7.31543 34.7669 15.2331 42.6845 25 42.6845Z" fill="#B82F3D"/>
<path d="M0.976562 12.5V12.8906C0.976562 15.1717 2.50312 17.0949 4.58984 17.6979V36.074V47.0703C4.58984 48.149 5.46426 49.0234 6.54297 49.0234C7.62168 49.0234 8.49609 48.149 8.49609 47.0703V17.6979C10.5828 17.0948 12.1094 15.1717 12.1094 12.8906V12.5H0.976562Z" fill="#FFF8EE"/>
<path d="M25 37.8906C32.1193 37.8906 37.8906 32.1193 37.8906 25C37.8906 17.8807 32.1193 12.1094 25 12.1094C17.8807 12.1094 12.1094 17.8807 12.1094 25C12.1094 32.1193 17.8807 37.8906 25 37.8906Z" fill="#DC3545"/>
<path d="M25 38.8672C32.6464 38.8672 38.8672 32.6464 38.8672 25C38.8672 17.3536 32.6464 11.1328 25 11.1328C17.3536 11.1328 11.1328 17.3536 11.1328 25C11.1328 32.6464 17.3536 38.8672 25 38.8672ZM25 13.0859C31.5694 13.0859 36.9141 18.4306 36.9141 25C36.9141 31.5694 31.5694 36.9141 25 36.9141C18.4306 36.9141 13.0859 31.5694 13.0859 25C13.0859 18.4306 18.4306 13.0859 25 13.0859Z" fill="#221122"/>
<path d="M49.4815 0.114063C49.1625 -0.0552733 48.776 -0.0348632 48.4767 0.167285C43.6825 3.40664 40.8203 8.79492 40.8203 14.581V27.2521C40.8203 28.6111 41.3496 29.8889 42.3105 30.8499L44.1406 32.68V47.0703C44.1406 48.6857 45.4549 50 47.0703 50C48.6857 50 50 48.6857 50 47.0703V0.976563C50 0.615332 49.8006 0.283594 49.4815 0.114063ZM48.0469 47.0703C48.0469 47.6088 47.6088 48.0469 47.0703 48.0469C46.5318 48.0469 46.0938 47.6088 46.0938 47.0703V32.2754C46.0938 32.0164 45.9908 31.7681 45.8077 31.5849L43.6916 29.4688C43.0995 28.8767 42.7734 28.0895 42.7734 27.2521V14.581C42.7734 10.0907 44.7149 5.87061 48.0469 2.95869V47.0703V47.0703Z" fill="#221122"/>
<path d="M17.9761 25C17.9761 22.1808 19.6517 19.6438 22.2448 18.5369C22.7408 18.3251 22.9713 17.7513 22.7596 17.2552C22.5478 16.7592 21.9738 16.5288 21.4779 16.7405C18.1642 18.1551 16.0229 21.3972 16.0229 25C16.0229 25.5393 16.4602 25.9766 16.9995 25.9766C17.5389 25.9766 17.9761 25.5393 17.9761 25Z" fill="#221122"/>
<path d="M24.9572 17.9762C24.9593 17.9762 24.9617 17.9762 24.9638 17.9762L25.0001 17.9761C25.5394 17.9761 25.9766 17.5389 25.9766 16.9995C25.9766 16.4602 25.5394 16.0229 25.0001 16.0229L24.9508 16.023C24.4114 16.0267 23.9771 16.4668 23.9807 17.0062C23.9843 17.5433 24.4209 17.9762 24.9572 17.9762Z" fill="#221122"/>
<path d="M17.4295 10.1018C19.7873 8.90118 22.3344 8.29239 25 8.29239C29.6285 8.29239 33.9331 10.142 37.1207 13.5007C37.3127 13.703 37.5707 13.805 37.8292 13.805C38.0706 13.805 38.3124 13.716 38.5013 13.5367C38.8925 13.1654 38.9086 12.5474 38.5374 12.1562C36.812 10.3382 34.7782 8.90772 32.4926 7.9046C30.1258 6.86592 27.6049 6.33926 25 6.33926C22.0235 6.33926 19.1781 7.01954 16.5432 8.36133C16.0626 8.60606 15.8713 9.19405 16.116 9.67471C16.3609 10.1552 16.9488 10.3464 17.4295 10.1018Z" fill="#221122"/>
<path d="M39.4854 35.1933C39.0623 34.8589 38.4482 34.9307 38.1138 35.3538C34.9211 39.3918 30.1413 41.7077 25 41.7077C21.7822 41.7077 18.6585 40.7913 15.9665 39.0575C15.5132 38.7654 14.9087 38.8963 14.6167 39.3497C14.3247 39.8032 14.4556 40.4075 14.909 40.6995C17.917 42.6368 21.4064 43.6607 25 43.6607C30.7422 43.6607 36.0804 41.0745 39.6458 36.565C39.9803 36.142 39.9086 35.5279 39.4854 35.1933Z" fill="#221122"/>
<path d="M13.2628 36.8901C13.2576 36.8838 13.2524 36.8774 13.2471 36.8711C12.8997 36.4584 12.2837 36.4057 11.8711 36.7529C11.4585 37.1004 11.4056 37.7163 11.753 38.129L11.7625 38.1403L11.763 38.1399C11.7733 38.1529 11.7841 38.166 11.7952 38.1789C11.9884 38.4039 12.2616 38.5194 12.5366 38.5194C12.7618 38.5194 12.9881 38.4419 13.1723 38.2838C13.5814 37.9324 13.6284 37.3159 13.2771 36.9067L13.2628 36.8901Z" fill="#221122"/>
<path d="M13.0859 12.8906V0.976562C13.0859 0.437207 12.6487 0 12.1094 0C11.57 0 11.1328 0.437207 11.1328 0.976562V11.5234H9.37422C9.37432 11.518 9.375 11.5127 9.375 11.5071V0.976562C9.375 0.437207 8.93779 0 8.39844 0C7.85908 0 7.42188 0.437207 7.42188 0.976562V11.5071C7.42188 11.5126 7.42266 11.518 7.42266 11.5234H5.66328C5.66338 11.518 5.66406 11.5127 5.66406 11.5071V0.976562C5.66406 0.437207 5.22686 0 4.6875 0C4.14814 0 3.71094 0.437207 3.71094 0.976562V11.5071C3.71094 11.5126 3.71172 11.518 3.71172 11.5234H1.95312V0.976562C1.95312 0.437207 1.51592 0 0.976562 0C0.437207 0 0 0.437207 0 0.976562V12.8906C0 15.2861 1.45352 17.4481 3.61328 18.3827V47.0703C3.61328 48.6857 4.92754 50 6.54297 50C8.1584 50 9.47266 48.6857 9.47266 47.0703V18.3827C11.6324 17.4481 13.0859 15.2861 13.0859 12.8906ZM8.225 16.7598C7.80723 16.8805 7.51953 17.263 7.51953 17.6979V47.0703C7.51953 47.6088 7.08145 48.0469 6.54297 48.0469C6.00449 48.0469 5.56641 47.6088 5.56641 47.0703V17.6979C5.56641 17.263 5.27881 16.8805 4.86094 16.7598C3.33916 16.32 2.22607 15.0138 1.99727 13.4766H11.0886C10.8599 15.0138 9.74678 16.32 8.225 16.7598Z" fill="#221122"/>
</g>
<defs>
<clipPath id="clip0">
<rect width="50" height="50" fill="white"/>
</clipPath>
</defs>
</svg>
