<svg width="49" height="50" viewBox="0 0 49 50" fill="none" xmlns="http://www.w3.org/2000/svg">
<g clip-path="url(#clip0)">
<path d="M15.4151 26.3452V29.7936H10.4425V14.7266H15.4151V18.0741" fill="#DC3545"/>
<path d="M19.6346 3.07175C19.6346 1.92485 18.7234 0.995178 17.5995 0.995178H8.21278C7.08881 0.995178 6.17773 1.92494 6.17773 3.07175V5.2359H19.6346V3.07175Z" fill="#B82F3D"/>
<path d="M6.17773 12.65C6.17773 13.797 7.08891 14.7266 8.21278 14.7266H17.5995C18.7235 14.7266 19.6346 13.7969 19.6346 12.65V10.5913H6.17773V12.65Z" fill="#B82F3D"/>
<path d="M6.17773 5.23599H19.6346V10.5913H6.17773V5.23599Z" fill="#FFF8EE"/>
<path d="M19.6346 31.8702C19.6346 30.7233 18.7234 29.7936 17.5995 29.7936H8.21278C7.08881 29.7936 6.17773 30.7234 6.17773 31.8702V34.0343H19.6346V31.8702Z" fill="#B82F3D"/>
<path d="M6.17773 41.4484C6.17773 42.5954 7.08891 43.525 8.21278 43.525H17.5995C18.7235 43.525 19.6346 42.5953 19.6346 41.4484V39.3897H6.17773V41.4484Z" fill="#B82F3D"/>
<path d="M6.17773 34.0344H19.6346V39.3897H6.17773V34.0344Z" fill="#FFF8EE"/>
<path d="M33.7089 20.2066H38.6814V35.2735H33.7089V20.2066Z" fill="#DC3545"/>
<path d="M42.9011 8.55173C42.9011 7.40483 41.9899 6.47516 40.866 6.47516H31.4793C30.3553 6.47516 29.4442 7.40492 29.4442 8.55173V10.716H42.9011V8.55173Z" fill="#B82F3D"/>
<path d="M29.4442 18.13C29.4442 19.2769 30.3554 20.2066 31.4793 20.2066H40.866C41.99 20.2066 42.9011 19.2768 42.9011 18.13V16.0713H29.4442V18.13Z" fill="#B82F3D"/>
<path d="M29.4442 10.7159H42.9011V16.0712H29.4442V10.7159Z" fill="#FFF8EE"/>
<path d="M29.4442 39.5142V44.8696H42.9011V39.5142" fill="#FFF8EE"/>
<path d="M40.2321 39.5142H42.9011V37.3501C42.9011 36.2032 41.9899 35.2735 40.866 35.2735H31.4793C30.3553 35.2735 29.4442 36.2033 29.4442 37.3501V39.5142H32.1485" fill="#B82F3D"/>
<path d="M29.4442 46.9284C29.4442 48.0753 30.3554 49.005 31.4793 49.005H40.866C41.99 49.005 42.9011 48.0752 42.9011 46.9284V44.8696H29.4442V46.9284Z" fill="#B82F3D"/>
<path d="M20.5705 31.8701C20.5705 30.1763 19.2201 28.7984 17.5602 28.7984H16.3509V26.3452C16.3509 25.0675 14.4004 25.0657 14.4004 26.3452V28.7984H11.3784V15.7217H14.4004V18.0741C14.4004 19.3518 16.3509 19.3536 16.3509 18.0741V15.7217H17.5601C19.2201 15.7217 20.5704 14.3438 20.5704 12.65V3.07172C20.5705 1.37798 19.2201 0 17.5602 0H8.17347C6.51351 0 5.16309 1.37798 5.16309 3.07172V12.65C5.16309 14.3439 6.51351 15.7217 8.17337 15.7217H9.42783V28.7983H8.17347C6.51351 28.7983 5.16318 30.1763 5.16318 31.87V41.4483C5.16318 43.1421 6.5136 44.52 8.17347 44.52H17.5602C19.2202 44.52 20.5705 43.142 20.5705 41.4483V31.8701ZM18.62 38.3945H7.11358V35.0295H18.6199V38.3945H18.62ZM18.62 41.4484C18.62 42.0447 18.1446 42.5298 17.5602 42.5298H8.17347C7.5891 42.5298 7.11367 42.0447 7.11367 41.4484V40.3848H18.62V41.4484ZM17.5602 30.7887C18.1446 30.7887 18.62 31.2738 18.62 31.8701V33.0392H7.11358V31.8701C7.11358 31.2738 7.58901 30.7887 8.17337 30.7887H17.5602ZM7.11358 6.23102H18.6199V9.59601H7.11358V6.23102ZM7.11358 3.07172C7.11358 2.47543 7.58901 1.9903 8.17347 1.9903H17.5602C18.1446 1.9903 18.62 2.47543 18.62 3.07172V4.24072H7.11358V3.07172ZM8.17347 13.7314C7.5891 13.7314 7.11367 13.2463 7.11367 12.65V11.5864H18.62V12.65C18.62 13.2463 18.1446 13.7314 17.5602 13.7314H8.17347Z" fill="#221122"/>
<path d="M28.4296 18.13C28.4296 19.8238 29.78 21.2017 31.4398 21.2017H32.6943V34.2784H31.4398C29.7799 34.2784 28.4296 35.6563 28.4296 37.3501V46.9283C28.4296 48.6221 29.78 50 31.4398 50H40.8265C42.4864 50 43.8368 48.622 43.8368 46.9283V37.3501C43.8368 35.6562 42.4863 34.2784 40.8265 34.2784H39.6173V21.2017H40.8264C42.4863 21.2017 43.8367 19.8237 43.8367 18.13V8.5517C43.8367 6.85786 42.4862 5.47998 40.8264 5.47998H31.4398C29.7799 5.47998 28.4296 6.85796 28.4296 8.5517V18.13ZM30.3801 11.7111H41.8863V15.0761H30.3801V11.7111ZM30.3801 8.5517C30.3801 7.95541 30.8555 7.47028 31.4398 7.47028H40.8265C41.4108 7.47028 41.8863 7.95541 41.8863 8.5517V9.7208H30.3801V8.5517ZM41.8863 46.9283C41.8863 47.5246 41.4108 48.0097 40.8265 48.0097H31.4398C30.8555 48.0097 30.3801 47.5246 30.3801 46.9283V45.8647H41.8863V46.9283ZM40.8265 36.2687C41.4108 36.2687 41.8863 36.7538 41.8863 37.3501V38.5191H40.1926C38.9403 38.5191 38.9386 40.5094 40.1926 40.5094H41.8863V43.8744H30.3801V40.5094H32.1091C33.3613 40.5094 33.363 38.5191 32.1091 38.5191H30.3801V37.3501C30.3801 36.7538 30.8555 36.2687 31.4398 36.2687H40.8265ZM37.6668 34.2784H34.6448V21.2017H37.6668V34.2784ZM31.4398 19.2114C30.8555 19.2114 30.3801 18.7263 30.3801 18.13V17.0664H41.8863V18.13C41.8863 18.7263 41.4108 19.2114 40.8265 19.2114H31.4398Z" fill="#221122"/>
<path d="M15.9174 21.3903C15.5681 21.1572 15.1073 21.1718 14.7764 21.4332C14.4403 21.6987 14.3139 22.1716 14.4663 22.5755C14.7877 23.4267 16.0117 23.3959 16.2986 22.5369C16.4394 22.116 16.2804 21.6373 15.9174 21.3903V21.3903Z" fill="#221122"/>
<path d="M37.0568 39.1337C36.8971 38.7422 36.4993 38.4907 36.0843 38.5222C35.6595 38.5546 35.2995 38.8726 35.2052 39.296C35.0123 40.1623 36.0033 40.8414 36.7167 40.3275C37.0837 40.0631 37.2303 39.5585 37.0568 39.1337V39.1337Z" fill="#221122"/>
</g>
<defs>
<clipPath id="clip0">
<rect width="49" height="50" fill="white"/>
</clipPath>
</defs>
</svg>
