<svg width="327" height="85" viewBox="0 0 327 85" fill="none" xmlns="http://www.w3.org/2000/svg">
<g filter="url(#filter0_i)">
<path d="M21.672 68.72C18.024 68.72 14.784 67.832 11.952 66.056C9.12 64.232 6.888 61.856 5.256 58.928C3.624 55.952 2.808 52.688 2.808 49.136C2.808 45.584 3.6 42.368 5.184 39.488C6.768 36.56 8.976 34.232 11.808 32.504C14.64 30.728 17.904 29.84 21.6 29.84C25.104 29.84 28.176 30.656 30.816 32.288C33.504 33.872 35.52 36.032 36.864 38.768L32.112 40.28C31.056 38.36 29.568 36.872 27.648 35.816C25.776 34.712 23.688 34.16 21.384 34.16C18.84 34.16 16.536 34.808 14.472 36.104C12.456 37.4 10.824 39.2 9.576 41.504C8.376 43.76 7.776 46.304 7.776 49.136C7.776 51.968 8.4 54.536 9.648 56.84C10.896 59.144 12.552 60.992 14.616 62.384C16.68 63.728 18.96 64.4 21.456 64.4C23.088 64.4 24.672 64.112 26.208 63.536C27.744 62.96 29.064 62.192 30.168 61.232C31.272 60.224 32.016 59.144 32.4 57.992L37.224 59.432C36.552 61.208 35.448 62.816 33.912 64.256C32.376 65.648 30.552 66.752 28.44 67.568C26.328 68.336 24.072 68.72 21.672 68.72ZM44.9156 22.64V15.44H49.8116V22.64H44.9156ZM44.9156 68V30.488H49.8116V68H44.9156ZM78.5953 66.2C78.0193 66.44 76.9633 66.872 75.4273 67.496C73.8913 68.12 72.1153 68.432 70.0993 68.432C67.9873 68.432 66.1393 67.832 64.5553 66.632C62.9713 65.432 62.1793 63.632 62.1793 61.232V34.376H56.9953V30.488H62.1793V17.816H67.0753V30.488H75.7153V34.376H67.0753V59.864C67.1713 61.256 67.6513 62.288 68.5153 62.96C69.4273 63.584 70.4593 63.896 71.6113 63.896C72.9553 63.896 74.1553 63.68 75.2113 63.248C76.3153 62.768 77.0113 62.432 77.2993 62.24L78.5953 66.2ZM86.8725 79.52C87.5445 79.568 88.1925 79.592 88.8165 79.592C89.4405 79.64 89.8965 79.616 90.1845 79.52C90.7605 79.472 91.2885 79.136 91.7685 78.512C92.2965 77.936 92.9205 76.832 93.6405 75.2C94.4085 73.616 95.4405 71.216 96.7365 68L80.3925 30.488H85.5765L99.3285 62.96L112.001 30.488H116.897L97.4565 78.872C96.9285 80.264 96.0405 81.464 94.7925 82.472C93.5445 83.48 91.8885 84.008 89.8245 84.056C89.3925 84.104 88.9365 84.104 88.4565 84.056C87.9765 84.056 87.4485 84.008 86.8725 83.912V79.52Z" fill="#212529"/>
</g>
<path d="M146.288 68.36C142.496 68.36 139.04 67.64 135.92 66.2C132.848 64.712 130.184 62.744 127.928 60.296C125.672 57.848 123.944 55.088 122.744 52.016C121.544 48.896 120.944 45.68 120.944 42.368C120.944 39.008 121.568 35.792 122.816 32.72C124.112 29.6 125.888 26.84 128.144 24.44C130.448 21.992 133.16 20.072 136.28 18.68C139.4 17.24 142.808 16.52 146.504 16.52C150.296 16.52 153.728 17.264 156.8 18.752C159.92 20.24 162.584 22.232 164.792 24.728C167.048 27.224 168.776 30.032 169.976 33.152C171.176 36.224 171.776 39.368 171.776 42.584C171.776 45.8 171.2 48.896 170.048 51.872C168.896 54.848 167.264 57.512 165.152 59.864L172.496 68H161.408L158.744 65.12C156.968 66.128 155.024 66.92 152.912 67.496C150.8 68.072 148.592 68.36 146.288 68.36ZM146.36 57.848C148.184 57.848 149.864 57.536 151.4 56.912L143.192 47.84H154.28L157.52 51.368C158.24 50.072 158.792 48.656 159.176 47.12C159.56 45.536 159.752 43.952 159.752 42.368C159.752 39.728 159.224 37.256 158.168 34.952C157.16 32.6 155.648 30.704 153.632 29.264C151.664 27.776 149.24 27.032 146.36 27.032C143.384 27.032 140.888 27.8 138.872 29.336C136.904 30.824 135.416 32.768 134.408 35.168C133.448 37.52 132.968 39.968 132.968 42.512C132.968 45.152 133.472 47.648 134.48 50C135.488 52.304 137 54.2 139.016 55.688C141.032 57.128 143.48 57.848 146.36 57.848ZM177.233 54.392V30.2H188.753V51.872C188.753 56.624 190.505 59 194.009 59C195.545 59 197.033 58.592 198.473 57.776C199.913 56.912 201.185 55.496 202.289 53.528V30.2H213.809V55.184C213.809 56.336 213.977 57.152 214.313 57.632C214.697 58.112 215.345 58.376 216.257 58.424V68C215.153 68.192 214.217 68.336 213.449 68.432C212.681 68.528 211.985 68.576 211.361 68.576C207.233 68.576 204.881 66.968 204.305 63.752L204.089 61.448C202.361 63.944 200.201 65.792 197.609 66.992C195.065 68.144 192.209 68.72 189.041 68.72C185.201 68.72 182.273 67.496 180.257 65.048C178.241 62.6 177.233 59.048 177.233 54.392ZM240.805 68.72C236.533 68.72 232.885 67.832 229.861 66.056C226.837 64.28 224.509 61.928 222.877 59C221.293 56.072 220.501 52.904 220.501 49.496C220.501 45.848 221.293 42.512 222.877 39.488C224.461 36.464 226.765 34.04 229.789 32.216C232.813 30.392 236.485 29.48 240.805 29.48C245.077 29.48 248.725 30.392 251.749 32.216C254.773 34.04 257.053 36.44 258.589 39.416C260.173 42.392 260.965 45.584 260.965 48.992C260.965 50.384 260.869 51.608 260.677 52.664H232.741C232.933 55.208 233.845 57.152 235.477 58.496C237.157 59.792 239.053 60.44 241.165 60.44C242.845 60.44 244.453 60.032 245.989 59.216C247.525 58.4 248.581 57.296 249.157 55.904L258.949 58.64C257.461 61.616 255.133 64.04 251.965 65.912C248.845 67.784 245.125 68.72 240.805 68.72ZM232.453 45.608H248.869C248.629 43.208 247.741 41.312 246.205 39.92C244.717 38.48 242.869 37.76 240.661 37.76C238.453 37.76 236.581 38.48 235.045 39.92C233.557 41.36 232.693 43.256 232.453 45.608ZM280.659 68.72C277.395 68.72 274.227 68.192 271.155 67.136C268.131 66.032 265.563 64.472 263.451 62.456L267.411 55.184C272.067 58.592 276.363 60.296 280.299 60.296C281.787 60.296 282.939 60.056 283.755 59.576C284.571 59.096 284.979 58.352 284.979 57.344C284.979 56.288 284.427 55.544 283.323 55.112C282.219 54.632 280.587 54.08 278.427 53.456C275.547 52.496 273.147 51.56 271.227 50.648C269.307 49.736 267.867 48.632 266.907 47.336C265.947 46.04 265.467 44.312 265.467 42.152C265.467 38.36 266.883 35.312 269.715 33.008C272.547 30.656 276.387 29.48 281.235 29.48C283.827 29.48 286.347 29.888 288.795 30.704C291.291 31.52 293.619 32.888 295.779 34.808L291.315 42.008C289.155 40.52 287.235 39.44 285.555 38.768C283.875 38.096 282.243 37.76 280.659 37.76C279.411 37.76 278.355 38 277.491 38.48C276.627 38.912 276.195 39.68 276.195 40.784C276.195 41.84 276.675 42.632 277.635 43.16C278.595 43.64 280.083 44.168 282.099 44.744C285.171 45.656 287.739 46.592 289.803 47.552C291.915 48.464 293.475 49.616 294.483 51.008C295.539 52.352 296.067 54.152 296.067 56.408C296.067 60.248 294.675 63.272 291.891 65.48C289.107 67.64 285.363 68.72 280.659 68.72ZM326.174 65.984C324.59 66.656 322.766 67.28 320.702 67.856C318.686 68.432 316.646 68.72 314.582 68.72C312.662 68.72 310.91 68.408 309.326 67.784C307.742 67.112 306.47 66.032 305.51 64.544C304.55 63.056 304.07 61.088 304.07 58.64V38.912H299.246V30.2H304.07V18.176H315.59V30.2H323.294V38.912H315.59V54.68C315.59 55.928 315.902 56.84 316.526 57.416C317.15 57.944 317.942 58.208 318.902 58.208C319.766 58.208 320.654 58.064 321.566 57.776C322.478 57.488 323.27 57.176 323.942 56.84L326.174 65.984Z" fill="#DC3545"/>
<defs>
<filter id="filter0_i" x="2.808" y="15.44" width="114.089" height="68.652" filterUnits="userSpaceOnUse" color-interpolation-filters="sRGB">
<feFlood flood-opacity="0" result="BackgroundImageFix"/>
<feBlend mode="normal" in="SourceGraphic" in2="BackgroundImageFix" result="shape"/>
<feColorMatrix in="SourceAlpha" type="matrix" values="0 0 0 0 0 0 0 0 0 0 0 0 0 0 0 0 0 0 127 0" result="hardAlpha"/>
<feOffset/>
<feGaussianBlur stdDeviation="2"/>
<feComposite in2="hardAlpha" operator="arithmetic" k2="-1" k3="1"/>
<feColorMatrix type="matrix" values="0 0 0 0 0 0 0 0 0 0 0 0 0 0 0 0 0 0 0.25 0"/>
<feBlend mode="normal" in2="shape" result="effect1_innerShadow"/>
</filter>
</defs>
</svg>
