<svg width="121" height="121" viewBox="0 0 121 121" fill="none" xmlns="http://www.w3.org/2000/svg">
<path d="M121 60.5C121 93.9132 93.9132 121 60.5 121C27.0868 121 -5.43248e-06 93.9132 -5.43248e-06 60.5C-5.43248e-06 27.0868 27.0868 0 60.5 0C93.9132 0 121 27.0868 121 60.5Z" fill="white"/>
<g filter="url(#filter0_i)">
<path d="M34.1057 84.22C30.4577 84.22 27.2177 83.332 24.3857 81.556C21.5537 79.732 19.3217 77.356 17.6897 74.428C16.0577 71.452 15.2417 68.188 15.2417 64.636C15.2417 61.084 16.0337 57.868 17.6177 54.988C19.2017 52.06 21.4097 49.732 24.2417 48.004C27.0737 46.228 30.3377 45.34 34.0337 45.34C37.5377 45.34 40.6097 46.156 43.2497 47.788C45.9377 49.372 47.9537 51.532 49.2977 54.268L44.5457 55.78C43.4897 53.86 42.0017 52.372 40.0817 51.316C38.2097 50.212 36.1217 49.66 33.8177 49.66C31.2737 49.66 28.9697 50.308 26.9057 51.604C24.8897 52.9 23.2577 54.7 22.0097 57.004C20.8097 59.26 20.2097 61.804 20.2097 64.636C20.2097 67.468 20.8337 70.036 22.0817 72.34C23.3297 74.644 24.9857 76.492 27.0497 77.884C29.1137 79.228 31.3937 79.9 33.8897 79.9C35.5217 79.9 37.1057 79.612 38.6417 79.036C40.1777 78.46 41.4977 77.692 42.6017 76.732C43.7057 75.724 44.4497 74.644 44.8337 73.492L49.6577 74.932C48.9857 76.708 47.8817 78.316 46.3457 79.756C44.8097 81.148 42.9857 82.252 40.8737 83.068C38.7617 83.836 36.5057 84.22 34.1057 84.22Z" fill="#212529"/>
</g>
<path d="M79.3813 83.86C75.4933 83.86 71.9653 83.14 68.7973 81.7C65.6293 80.26 62.8933 78.316 60.5893 75.868C58.3333 73.372 56.5813 70.588 55.3333 67.516C54.1333 64.396 53.5333 61.18 53.5333 57.868C53.5333 54.46 54.1813 51.22 55.4773 48.148C56.7733 45.028 58.5733 42.268 60.8773 39.868C63.2293 37.468 65.9893 35.572 69.1573 34.18C72.3733 32.74 75.8773 32.02 79.6693 32.02C83.5573 32.02 87.0853 32.764 90.2533 34.252C93.4213 35.74 96.1333 37.732 98.3893 40.228C100.645 42.724 102.373 45.532 103.573 48.652C104.821 51.724 105.445 54.892 105.445 58.156C105.445 61.276 104.869 64.3 103.717 67.228C102.613 70.156 101.053 72.772 99.0373 75.076L106.741 83.5H93.6373L91.3333 81.052C89.6053 81.916 87.7333 82.612 85.7173 83.14C83.7013 83.62 81.5893 83.86 79.3813 83.86ZM79.5253 71.404C80.4853 71.404 81.3973 71.308 82.2613 71.116L73.7653 61.9H86.8693L89.6773 64.996C90.2053 63.892 90.5893 62.74 90.8293 61.54C91.0693 60.34 91.1893 59.116 91.1893 57.868C91.1893 55.564 90.7573 53.404 89.8933 51.388C89.0293 49.324 87.7333 47.668 86.0053 46.42C84.2773 45.124 82.0933 44.476 79.4533 44.476C76.7653 44.476 74.5573 45.148 72.8293 46.492C71.1013 47.788 69.8293 49.468 69.0133 51.532C68.1973 53.596 67.7893 55.756 67.7893 58.012C67.7893 60.268 68.1973 62.428 69.0133 64.492C69.8773 66.556 71.1733 68.236 72.9013 69.532C74.6773 70.78 76.8853 71.404 79.5253 71.404Z" fill="#DC3545"/>
<defs>
<filter id="filter0_i" x="15.2417" y="45.34" width="34.416" height="38.88" filterUnits="userSpaceOnUse" color-interpolation-filters="sRGB">
<feFlood flood-opacity="0" result="BackgroundImageFix"/>
<feBlend mode="normal" in="SourceGraphic" in2="BackgroundImageFix" result="shape"/>
<feColorMatrix in="SourceAlpha" type="matrix" values="0 0 0 0 0 0 0 0 0 0 0 0 0 0 0 0 0 0 127 0" result="hardAlpha"/>
<feOffset/>
<feGaussianBlur stdDeviation="2"/>
<feComposite in2="hardAlpha" operator="arithmetic" k2="-1" k3="1"/>
<feColorMatrix type="matrix" values="0 0 0 0 0 0 0 0 0 0 0 0 0 0 0 0 0 0 0.25 0"/>
<feBlend mode="normal" in2="shape" result="effect1_innerShadow"/>
</filter>
</defs>
</svg>
