<svg width="1000" height="1000" viewBox="0 0 1000 1000" fill="none" xmlns="http://www.w3.org/2000/svg">
<path d="M643.213 519.589H540.361V726H643.213V519.589Z" fill="#FFC299"/>
<path d="M643.213 519.589H540.361V726H643.213V519.589Z" fill="white"/>
<path opacity="0.34" d="M554 519.589H540.361V726H554V519.589Z" fill="#333333"/>
<path d="M643.213 731H540.361C537.6 731 535.361 728.761 535.361 726V519.59C535.361 516.829 537.6 514.59 540.361 514.59H643.213C645.974 514.59 648.213 516.829 648.213 519.59V726C648.213 728.761 645.974 731 643.213 731ZM545.361 721H638.213V524.59H545.361V721Z" fill="#170E10"/>
<path d="M629.084 678H557.209V684H629.084V678Z" fill="#260005"/>
<path d="M629.084 652H557.209V658H629.084V652Z" fill="#260005"/>
<path d="M629.084 626H557.209V632H629.084V626Z" fill="#260005"/>
<path d="M629.084 600H557.209V606H629.084V600Z" fill="#260005"/>
<path d="M629.084 574H557.209V580H629.084V574Z" fill="#260005"/>
<path d="M629.084 548H557.209V554H629.084V548Z" fill="#260005"/>
<path d="M542.574 437.994H394.574V726H542.574V437.994Z" fill="#9DD7CE"/>
<path opacity="0.69" d="M408 437.994H394.574V726H408V437.994Z" fill="#333333"/>
<path d="M326.565 229.7H350.565C357.192 229.7 362.565 235.073 362.565 241.7V277.7H314.565V241.7C314.565 235.073 319.938 229.7 326.565 229.7Z" fill="#C0BFBF"/>
<path opacity="0.69" d="M339.333 229.7H326.565C319.938 229.7 314.565 235.073 314.565 241.7V277.7H327.333V241.7C327.333 235.073 332.706 229.7 339.333 229.7Z" fill="#333333"/>
<path d="M362.565 282.7H314.565C311.804 282.7 309.565 280.461 309.565 277.7V241.7C309.575 232.315 317.181 224.71 326.565 224.7H350.565C359.949 224.71 367.555 232.315 367.565 241.7V277.7C367.565 280.461 365.326 282.7 362.565 282.7ZM319.565 272.7H357.565V241.7C357.561 237.836 354.429 234.704 350.565 234.7H326.565C322.701 234.704 319.569 237.836 319.565 241.7V272.7Z" fill="#170E10"/>
<path d="M339 235C336.239 235 334 232.761 334 230V183C334 180.239 336.239 178 339 178C341.761 178 344 180.239 344 183V230C344 232.761 341.761 235 339 235Z" fill="#170E10"/>
<path d="M945.568 731H922C919.239 731 917 728.761 917 726C917 723.239 919.239 721 922 721H945.568C948.329 721 950.568 723.239 950.568 726C950.568 728.761 948.329 731 945.568 731Z" fill="#170E10"/>
<path d="M904.929 731H702.5C699.739 731 697.5 728.761 697.5 726C697.5 723.239 699.739 721 702.5 721H904.929C907.69 721 909.929 723.239 909.929 726C909.929 728.761 907.69 731 904.929 731Z" fill="#170E10"/>
<path d="M678 731H669C666.239 731 664 728.761 664 726C664 723.239 666.239 721 669 721H678C680.761 721 683 723.239 683 726C683 728.761 680.761 731 678 731Z" fill="#170E10"/>
<path d="M654.5 731H175.5C172.739 731 170.5 728.761 170.5 726C170.5 723.239 172.739 721 175.5 721H654.5C657.261 721 659.5 723.239 659.5 726C659.5 728.761 657.261 731 654.5 731Z" fill="#170E10"/>
<path d="M160.083 731H151.667C148.906 731 146.667 728.761 146.667 726C146.667 723.239 148.906 721 151.667 721H160.083C162.844 721 165.083 723.239 165.083 726C165.083 728.761 162.844 731 160.083 731Z" fill="#170E10"/>
<path d="M135 731H65.275C62.514 731 60.275 728.761 60.275 726C60.275 723.239 62.514 721 65.275 721H135C137.761 721 140 723.239 140 726C140 728.761 137.761 731 135 731Z" fill="#170E10"/>
<path d="M394.565 345.098H282.565V726H394.565V345.098Z" fill="#C0BFBF"/>
<path opacity="0.69" d="M294 345.098H282.565V726H294V345.098Z" fill="#333333"/>
<path d="M394.565 731H282.565C279.804 731 277.565 728.761 277.565 726V345.1C277.565 342.339 279.804 340.1 282.565 340.1H394.565C397.326 340.1 399.565 342.339 399.565 345.1V726C399.565 728.761 397.326 731 394.565 731ZM287.565 721H389.565V350.1H287.565V721Z" fill="#170E10"/>
<path d="M375 640H302V646H375V640Z" fill="#170E10"/>
<path d="M375 652H302V658H375V652Z" fill="#170E10"/>
<path d="M375 606H302V612H375V606Z" fill="#170E10"/>
<path d="M375 618H302V624H375V618Z" fill="#170E10"/>
<path d="M375 572H302V578H375V572Z" fill="#170E10"/>
<path d="M375 584H302V590H375V584Z" fill="#170E10"/>
<path d="M375 538H302V544H375V538Z" fill="#170E10"/>
<path d="M375 550H302V556H375V550Z" fill="#170E10"/>
<path d="M375 504H302V510H375V504Z" fill="#170E10"/>
<path d="M375 516H302V522H375V516Z" fill="#170E10"/>
<path d="M375 470H302V476H375V470Z" fill="#170E10"/>
<path d="M375 482H302V488H375V482Z" fill="#170E10"/>
<path d="M375 436H302V442H375V436Z" fill="#170E10"/>
<path d="M375 448H302V454H375V448Z" fill="#170E10"/>
<path d="M375 402H302V408H375V402Z" fill="#170E10"/>
<path d="M375 414H302V420H375V414Z" fill="#170E10"/>
<path d="M375 368H302V374H375V368Z" fill="#170E10"/>
<path d="M375 380H302V386H375V380Z" fill="#170E10"/>
<path d="M338.565 265.1C359 265.1 375.565 281.665 375.565 302.1V345.1H301.565V302.1C301.565 281.665 318.13 265.1 338.565 265.1Z" fill="#C0BFBF"/>
<path opacity="0.69" d="M345.065 265.679C342.92 265.295 340.745 265.1 338.565 265.098C318.13 265.098 301.565 281.663 301.565 302.098V345.098H314.565V302.098C314.568 284.173 327.419 268.828 345.065 265.679Z" fill="#333333"/>
<path d="M375.565 350.1H301.565C298.804 350.1 296.565 347.861 296.565 345.1V302.1C296.565 278.904 315.369 260.1 338.565 260.1C361.761 260.1 380.565 278.904 380.565 302.1V345.1C380.565 347.861 378.326 350.1 375.565 350.1ZM306.565 340.1H370.565V302.1C370.565 284.427 356.238 270.1 338.565 270.1C320.892 270.1 306.565 284.427 306.565 302.1V340.1Z" fill="#170E10"/>
<path d="M542.574 731H394.574C391.813 731 389.574 728.761 389.574 726V437.994C389.574 435.233 391.813 432.994 394.574 432.994H542.574C545.335 432.994 547.574 435.233 547.574 437.994V726C547.574 728.761 545.335 731 542.574 731ZM399.574 721H537.574V442.994H399.574V721V721Z" fill="#170E10"/>
<path d="M547.25 417.994H394.574V437.994H547.25V417.994Z" fill="#DC3545"/>
<path d="M548 442.994H394.574C391.813 442.994 389.574 440.755 389.574 437.994V417.994C389.574 415.233 391.813 412.994 394.574 412.994H548C550.761 412.994 553 415.233 553 417.994V437.994C553 440.755 550.761 442.994 548 442.994ZM399.574 432.994H543V422.994H399.574V432.994Z" fill="#170E10"/>
<path d="M362.564 674.5H314.566V726H362.564V674.5Z" fill="white"/>
<path opacity="0.34" d="M362.564 676.5H314.566V687H362.564V676.5Z" fill="#333333"/>
<path opacity="0.34" d="M325.666 687H314.566V726H325.666V687Z" fill="#333333"/>
<path d="M362.564 731H314.564C311.803 731 309.564 728.761 309.564 726V674.5C309.564 671.739 311.803 669.5 314.564 669.5H362.564C365.325 669.5 367.564 671.739 367.564 674.5V726C367.564 728.761 365.325 731 362.564 731ZM319.564 721H357.564V679.5H319.564V721Z" fill="#170E10"/>
<path d="M523 670H513V685H523V670Z" fill="#170E10"/>
<path d="M503 670H493V685H503V670Z" fill="#170E10"/>
<path d="M483 670H473V685H483V670Z" fill="#170E10"/>
<path d="M463 670H453V685H463V670Z" fill="#170E10"/>
<path d="M443 670H433V685H443V670Z" fill="#170E10"/>
<path d="M423 670H413V685H423V670Z" fill="#170E10"/>
<path d="M523 630H513V645H523V630Z" fill="#170E10"/>
<path d="M503 630H493V645H503V630Z" fill="#170E10"/>
<path d="M483 630H473V645H483V630Z" fill="#170E10"/>
<path d="M463 630H453V645H463V630Z" fill="#170E10"/>
<path d="M443 630H433V645H443V630Z" fill="#170E10"/>
<path d="M423 630H413V645H423V630Z" fill="#170E10"/>
<path d="M523 590H513V605H523V590Z" fill="#170E10"/>
<path d="M503 590H493V605H503V590Z" fill="#170E10"/>
<path d="M483 590H473V605H483V590Z" fill="#170E10"/>
<path d="M463 590H453V605H463V590Z" fill="#170E10"/>
<path d="M443 590H433V605H443V590Z" fill="#170E10"/>
<path d="M423 590H413V605H423V590Z" fill="#170E10"/>
<path d="M523 550H513V565H523V550Z" fill="#170E10"/>
<path d="M503 550H493V565H503V550Z" fill="#170E10"/>
<path d="M483 550H473V565H483V550Z" fill="#170E10"/>
<path d="M463 550H453V565H463V550Z" fill="#170E10"/>
<path d="M443 550H433V565H443V550Z" fill="#170E10"/>
<path d="M423 550H413V565H423V550Z" fill="#170E10"/>
<path d="M523 510H513V525H523V510Z" fill="#170E10"/>
<path d="M503 510H493V525H503V510Z" fill="#170E10"/>
<path d="M483 510H473V525H483V510Z" fill="#170E10"/>
<path d="M463 510H453V525H463V510Z" fill="#170E10"/>
<path d="M443 510H433V525H443V510Z" fill="#170E10"/>
<path d="M423 510H413V525H423V510Z" fill="#170E10"/>
<path d="M523 470H513V485H523V470Z" fill="#170E10"/>
<path d="M503 470H493V485H503V470Z" fill="#170E10"/>
<path d="M483 470H473V485H483V470Z" fill="#170E10"/>
<path d="M463 470H453V485H463V470Z" fill="#170E10"/>
<path d="M443 470H433V485H443V470Z" fill="#170E10"/>
<path d="M423 470H413V485H423V470Z" fill="#170E10"/>
<path d="M499 668.333H437.5V726H499V668.333Z" fill="#FFC299"/>
<path opacity="0.69" d="M499 668.333H437.5V681.75H499V668.333Z" fill="#333333"/>
<path opacity="0.69" d="M449.5 681.75H437.5V726H449.5V681.75Z" fill="#333333"/>
<path d="M499 731H437.5C434.739 731 432.5 728.761 432.5 726V668.333C432.5 665.572 434.739 663.333 437.5 663.333H499C501.761 663.333 504 665.572 504 668.333V726C504 728.761 501.761 731 499 731ZM442.5 721H494V673.333H442.5V721Z" fill="#170E10"/>
<path d="M281.424 438H220.859V726H281.424V438Z" fill="#DC3545"/>
<path opacity="0.53" d="M231 438H220.859V726H231V438Z" fill="#333333"/>
<path d="M281.424 731H220.859C218.098 731 215.859 728.761 215.859 726V438C215.859 435.239 218.098 433 220.859 433H281.424C284.185 433 286.424 435.239 286.424 438V726C286.424 728.761 284.185 731 281.424 731ZM225.859 721H276.424V443H225.859V721Z" fill="#170E10"/>
<path d="M240 630H236V645H240V630Z" fill="#260005"/>
<g opacity="0.36">
<path opacity="0.36" d="M240 650H236V656H240V650Z" fill="#FF99AA"/>
</g>
<path d="M253 630H249V645H253V630Z" fill="#260005"/>
<g opacity="0.36">
<path opacity="0.36" d="M253 650H249V656H253V650Z" fill="#FF99AA"/>
</g>
<path d="M266 630H262V645H266V630Z" fill="#260005"/>
<g opacity="0.36">
<path opacity="0.36" d="M266 650H262V656H266V650Z" fill="#FF99AA"/>
</g>
<path d="M240 586H236V601H240V586Z" fill="#260005"/>
<g opacity="0.36">
<path opacity="0.36" d="M240 606H236V612H240V606Z" fill="#FF99AA"/>
</g>
<path d="M253 586H249V601H253V586Z" fill="#260005"/>
<g opacity="0.36">
<path opacity="0.36" d="M253 606H249V612H253V606Z" fill="#FF99AA"/>
</g>
<path d="M266 586H262V601H266V586Z" fill="#260005"/>
<g opacity="0.36">
<path opacity="0.36" d="M266 606H262V612H266V606Z" fill="#FF99AA"/>
</g>
<path d="M240 542H236V557H240V542Z" fill="#260005"/>
<g opacity="0.36">
<path opacity="0.36" d="M240 562H236V568H240V562Z" fill="#FF99AA"/>
</g>
<path d="M253 542H249V557H253V542Z" fill="#260005"/>
<g opacity="0.36">
<path opacity="0.36" d="M253 562H249V568H253V562Z" fill="#FF99AA"/>
</g>
<path d="M266 542H262V557H266V542Z" fill="#260005"/>
<g opacity="0.36">
<path opacity="0.36" d="M266 562H262V568H266V562Z" fill="#FF99AA"/>
</g>
<path d="M240 498H236V513H240V498Z" fill="#260005"/>
<g opacity="0.36">
<path opacity="0.36" d="M240 518H236V524H240V518Z" fill="#FF99AA"/>
</g>
<path d="M253 498H249V513H253V498Z" fill="#260005"/>
<g opacity="0.36">
<path opacity="0.36" d="M253 518H249V524H253V518Z" fill="#FF99AA"/>
</g>
<path d="M266 498H262V513H266V498Z" fill="#260005"/>
<g opacity="0.36">
<path opacity="0.36" d="M266 518H262V524H266V518Z" fill="#FF99AA"/>
</g>
<path d="M240 454H236V469H240V454Z" fill="#260005"/>
<g opacity="0.36">
<path opacity="0.36" d="M240 474H236V480H240V474Z" fill="#FF99AA"/>
</g>
<path d="M253 454H249V469H253V454Z" fill="#260005"/>
<g opacity="0.36">
<path opacity="0.36" d="M253 474H249V480H253V474Z" fill="#FF99AA"/>
</g>
<path d="M266 454H262V469H266V454Z" fill="#260005"/>
<g opacity="0.36">
<path opacity="0.36" d="M266 474H262V480H266V474Z" fill="#FF99AA"/>
</g>
<path d="M262 678H242V726H262V678Z" fill="white"/>
<path d="M262 731H242C239.239 731 237 728.761 237 726V678C237 675.239 239.239 673 242 673H262C264.761 673 267 675.239 267 678V726C267 728.761 264.761 731 262 731ZM247 721H257V683H247V721Z" fill="#170E10"/>
<path d="M525 419.667C522.791 419.667 521 417.876 521 415.667V371C521 368.791 522.791 367 525 367C527.209 367 529 368.791 529 371V415.667C529 417.876 527.209 419.667 525 419.667Z" fill="#170E10"/>
<path d="M535.333 384.333H515.333C513.124 384.333 511.333 382.542 511.333 380.333C511.333 378.124 513.124 376.333 515.333 376.333H535.333C537.542 376.333 539.333 378.124 539.333 380.333C539.333 382.542 537.542 384.333 535.333 384.333Z" fill="#170E10"/>
<path d="M542.574 397.333H508.759C506.55 397.333 504.759 395.542 504.759 393.333C504.759 391.124 506.55 389.333 508.759 389.333H542.574C544.783 389.333 546.574 391.124 546.574 393.333C546.574 395.542 544.783 397.333 542.574 397.333Z" fill="#170E10"/>
<path d="M813 731C810.239 731 808 728.761 808 726V549C808 546.239 810.239 544 813 544C815.761 544 818 546.239 818 549V726C818 728.761 815.761 731 813 731Z" fill="#170E10"/>
<path d="M775 564.167C772.239 564.167 770 561.928 770 559.167V549C770 546.239 772.239 544 775 544C777.761 544 780 546.239 780 549V559.167C780 561.928 777.761 564.167 775 564.167Z" fill="#170E10"/>
<path d="M813 554C810.239 554 808 551.761 808 549C808 541.268 801.732 535 794 535C786.268 535 780 541.268 780 549C780 551.761 777.761 554 775 554C772.239 554 770 551.761 770 549C770 535.745 780.745 525 794 525C807.255 525 818 535.745 818 549C818 551.761 815.761 554 813 554Z" fill="#170E10"/>
<path d="M792.5 582.333H757.5C754.739 582.333 752.5 580.095 752.499 577.334C752.499 576.137 752.928 574.979 753.71 574.071L771.21 553.738C773.011 551.645 776.168 551.408 778.261 553.209C778.45 553.372 778.627 553.549 778.79 553.738L796.29 574.071C798.092 576.164 797.855 579.321 795.763 581.122C794.855 581.904 793.698 582.333 792.5 582.333ZM768.4 572.333H781.6L775 564.665L768.4 572.333Z" fill="#170E10"/>
<path d="M197.5 731C194.739 731 192.5 728.761 192.5 726V551C192.5 548.239 194.739 546 197.5 546C200.261 546 202.5 548.239 202.5 551V726C202.5 728.761 200.261 731 197.5 731Z" fill="#170E10"/>
<path d="M159.5 564.857C156.739 564.857 154.5 562.618 154.5 559.857V551C154.5 548.239 156.739 546 159.5 546C162.261 546 164.5 548.239 164.5 551V559.857C164.5 562.618 162.261 564.857 159.5 564.857Z" fill="#170E10"/>
<path d="M197.5 556C194.739 556 192.5 553.761 192.5 551C192.5 543.268 186.232 537 178.5 537C170.768 537 164.5 543.268 164.5 551C164.5 553.761 162.261 556 159.5 556C156.739 556 154.5 553.761 154.5 551C154.5 537.745 165.245 527 178.5 527C191.755 527 202.5 537.745 202.5 551C202.5 553.761 200.261 556 197.5 556Z" fill="#170E10"/>
<path d="M177 579.333H142L159.5 559L177 579.333Z" fill="white"/>
<path d="M177 584.333H142C139.239 584.333 137 582.095 136.999 579.334C136.999 578.137 137.428 576.979 138.21 576.071L155.71 555.738C157.511 553.645 160.668 553.408 162.761 555.209C162.95 555.372 163.127 555.549 163.29 555.738L180.79 576.071C182.592 578.164 182.355 581.321 180.263 583.122C179.355 583.904 178.197 584.333 177 584.333ZM152.9 574.333H166.1L159.5 566.665L152.9 574.333Z" fill="#170E10"/>
<path d="M106.275 690.647C128.919 690.647 147.275 665.193 147.275 633.795C147.275 602.396 128.919 576.943 106.275 576.943C83.6313 576.943 65.275 602.396 65.275 633.795C65.275 665.193 83.6313 690.647 106.275 690.647Z" fill="#DC3545"/>
<path opacity="0.53" d="M76.561 633.795C76.561 605.534 91.435 582.1 110.918 577.695C108.739 577.197 106.51 576.945 104.275 576.941C81.631 576.941 63.275 602.395 63.275 633.794C63.275 665.193 81.631 690.646 104.275 690.646C106.51 690.642 108.739 690.39 110.918 689.892C91.435 685.49 76.561 662.056 76.561 633.795Z" fill="#333333"/>
<path d="M106.275 695.647C80.911 695.647 60.275 667.9 60.275 633.795C60.275 599.69 80.911 571.942 106.275 571.942C131.639 571.942 152.275 599.689 152.275 633.795C152.275 667.901 131.639 695.647 106.275 695.647ZM106.275 581.942C86.424 581.942 70.275 605.203 70.275 633.795C70.275 662.387 86.424 685.647 106.275 685.647C126.126 685.647 142.275 662.387 142.275 633.795C142.275 605.203 126.125 581.942 106.275 581.942Z" fill="#170E10"/>
<path d="M107.848 672.2C105.087 672.2 102.848 669.961 102.848 667.2C102.848 665.874 103.375 664.603 104.312 663.665L116.025 651.951C117.978 649.998 121.144 649.998 123.096 651.951C125.049 653.904 125.049 657.07 123.097 659.022L111.383 670.73C110.448 671.671 109.175 672.201 107.848 672.2Z" fill="#170E10"/>
<path d="M106.274 654.353C105.004 654.354 103.782 653.87 102.857 653L90.357 641.3C88.341 639.413 88.237 636.248 90.125 634.232C92.012 632.216 95.177 632.112 97.192 634L109.692 645.7C111.708 647.587 111.812 650.751 109.925 652.767C108.979 653.777 107.658 654.35 106.274 654.35V654.353V654.353Z" fill="#170E10"/>
<path d="M559.5 702.399C573.328 702.399 584.538 686.999 584.538 668.002C584.538 649.005 573.328 633.605 559.5 633.605C545.672 633.605 534.462 649.005 534.462 668.002C534.462 686.999 545.672 702.399 559.5 702.399Z" fill="#E97E1C"/>
<path opacity="0.53" d="M544.462 668C544.462 651.356 553.068 637.474 564.5 634.291C562.872 633.835 561.19 633.604 559.5 633.603C545.672 633.603 534.462 649.003 534.462 668.003C534.462 687.003 545.672 702.403 559.5 702.403C561.19 702.402 562.872 702.171 564.5 701.716C553.068 698.528 544.462 684.647 544.462 668Z" fill="#333333"/>
<path d="M559.5 707.4C542.937 707.4 529.462 689.727 529.462 668C529.462 646.273 542.937 628.6 559.5 628.6C576.063 628.6 589.538 646.273 589.538 668C589.538 689.727 576.063 707.4 559.5 707.4ZM559.5 638.606C548.639 638.606 539.462 652.068 539.462 668.006C539.462 683.944 548.639 697.406 559.5 697.406C570.361 697.406 579.538 683.945 579.538 668.006C579.538 652.067 570.361 638.605 559.5 638.605V638.606Z" fill="#170E10"/>
<path d="M762.768 635.21C766.554 670.748 739.717 685.029 725.068 684.13C710.415 685.03 683.579 670.746 687.368 635.21C694.118 600.798 709.115 574.177 725.068 574.359C741.021 574.178 756.017 600.8 762.768 635.21Z" fill="#DC3545"/>
<path opacity="0.53" d="M734.7 682.13C720.048 683.03 693.211 668.746 697 633.21C702.619 604.567 713.952 581.337 726.8 574.454C726.227 574.387 725.651 574.356 725.074 574.359C709.118 574.177 694.121 600.798 687.374 635.21C683.588 670.746 710.424 685.03 725.074 684.13C729.113 684.272 733.14 683.597 736.911 682.143C736.145 682.171 735.4 682.174 734.7 682.13Z" fill="#333333"/>
<path d="M723.827 689.168C715.96 689.168 704.227 685.749 694.777 675.868C687.892 668.668 680.153 655.674 682.391 634.677C682.406 634.532 682.428 634.388 682.456 634.244C685.911 616.631 691.601 600.644 698.479 589.228C706.314 576.228 715.446 569.355 724.899 569.355C725.009 569.355 725.12 569.355 725.229 569.355C734.684 569.355 743.814 576.222 751.651 589.228C758.528 600.644 764.219 616.628 767.674 634.244C767.702 634.388 767.724 634.532 767.739 634.678C769.977 655.678 762.239 668.666 755.353 675.867C745.4 686.28 732.9 689.5 725.064 689.139C724.664 689.157 724.252 689.168 723.827 689.168ZM692.312 635.955C690.554 653.009 696.605 663.312 702.006 668.961C709.228 676.514 718.649 679.515 724.758 679.141C724.962 679.127 725.166 679.127 725.37 679.141C731.507 679.516 740.903 676.513 748.125 668.96C753.525 663.312 759.576 653.009 757.818 635.96C751.436 603.634 737.458 579.36 725.227 579.36H724.9C712.671 579.358 698.694 603.627 692.312 635.955Z" fill="#170E10"/>
<path d="M725.064 665.333C722.303 665.333 720.064 663.094 720.064 660.333C720.064 659.007 720.591 657.735 721.529 656.797L734.164 644.163C736.124 642.218 739.29 642.231 741.235 644.191C743.169 646.141 743.169 649.285 741.234 651.235L728.6 663.869C727.663 664.808 726.391 665.335 725.064 665.333Z" fill="#170E10"/>
<path d="M725.064 643.5C723.738 643.502 722.465 642.974 721.529 642.035L707.747 628.253C705.828 626.267 705.883 623.102 707.869 621.183C709.807 619.311 712.879 619.311 714.817 621.183L728.6 634.965C730.552 636.918 730.552 640.084 728.599 642.036C727.661 642.973 726.39 643.5 725.064 643.5Z" fill="#170E10"/>
<path d="M516 778H410.5C407.739 778 405.5 775.761 405.5 773C405.5 770.239 407.739 768 410.5 768H516C518.761 768 521 770.239 521 773C521 775.761 518.761 778 516 778Z" fill="#170E10"/>
<path d="M542.574 778H531.833C529.072 778 526.833 775.761 526.833 773C526.833 770.239 529.072 768 531.833 768H542.574C545.335 768 547.574 770.239 547.574 773C547.574 775.761 545.335 778 542.574 778Z" fill="#170E10"/>
<path d="M557.417 778H555.333C552.572 778 550.333 775.761 550.333 773C550.333 770.239 552.572 768 555.333 768H557.417C560.178 768 562.417 770.239 562.417 773C562.417 775.761 560.178 778 557.417 778Z" fill="#170E10"/>
<path d="M385.5 778H359.449C356.688 778 354.449 775.761 354.449 773C354.449 770.239 356.688 768 359.449 768H385.5C388.261 768 390.5 770.239 390.5 773C390.5 775.761 388.261 778 385.5 778Z" fill="#170E10"/>
<path d="M559.5 729.4C556.739 729.4 554.5 727.161 554.5 724.4V678.5C554.5 675.739 556.739 673.5 559.5 673.5C562.261 673.5 564.5 675.739 564.5 678.5V724.4C564.5 727.161 562.261 729.4 559.5 729.4Z" fill="#170E10"/>
<path d="M725.064 731C722.303 731 720.064 728.761 720.064 726V612.5C720.064 609.739 722.303 607.5 725.064 607.5C727.825 607.5 730.064 609.739 730.064 612.5V726C730.064 728.761 727.825 731 725.064 731Z" fill="#170E10"/>
<path d="M107.848 731C105.087 731 102.848 728.761 102.848 726V623C102.848 620.239 105.087 618 107.848 618C110.609 618 112.848 620.239 112.848 623V726C112.848 728.761 110.609 731 107.848 731Z" fill="#170E10"/>
<path d="M863.929 687.443C886.573 687.443 904.929 661.989 904.929 630.591C904.929 599.193 886.573 573.739 863.929 573.739C841.285 573.739 822.929 599.193 822.929 630.591C822.929 661.989 841.285 687.443 863.929 687.443Z" fill="#E97E1C"/>
<path opacity="0.53" d="M832.929 630.591C832.929 601.541 848.646 577.596 868.929 574.174C867.277 573.889 865.605 573.743 863.929 573.738C841.286 573.738 822.929 599.192 822.929 630.591C822.929 661.99 841.286 687.443 863.929 687.443C865.605 687.438 867.277 687.292 868.929 687.007C848.646 683.585 832.929 659.64 832.929 630.591Z" fill="#333333"/>
<path d="M863.93 692.443C838.565 692.443 817.93 664.696 817.93 630.591C817.93 596.486 838.565 568.738 863.93 568.738C889.295 568.738 909.93 596.485 909.93 630.591C909.93 664.697 889.294 692.443 863.93 692.443ZM863.93 578.743C844.079 578.743 827.93 602.004 827.93 630.596C827.93 659.188 844.079 682.448 863.93 682.448C883.781 682.448 899.93 659.188 899.93 630.596C899.93 602.004 883.78 578.738 863.93 578.738V578.743Z" fill="#170E10"/>
<path d="M865.5 673.991C862.739 673.99 860.5 671.751 860.501 668.99C860.501 667.665 861.028 666.394 861.965 665.456L873.679 653.742C875.665 651.823 878.83 651.878 880.749 653.864C882.621 655.802 882.621 658.874 880.749 660.812L869.035 672.526C868.099 673.466 866.826 673.993 865.5 673.991Z" fill="#170E10"/>
<path d="M863.929 656.148C862.66 656.15 861.438 655.667 860.512 654.798L848.012 643.093C845.996 641.205 845.892 638.041 847.78 636.025C849.668 634.009 852.832 633.905 854.848 635.793L867.348 647.498C869.363 649.386 869.467 652.55 867.579 654.565C866.633 655.575 865.312 656.147 863.929 656.148Z" fill="#170E10"/>
<path d="M865.5 730.565C862.739 730.565 860.5 728.326 860.5 725.565V624.718C860.5 621.957 862.739 619.718 865.5 619.718C868.261 619.718 870.5 621.957 870.5 624.718V725.565C870.5 728.326 868.261 730.565 865.5 730.565Z" fill="#170E10"/>
<path d="M330.333 308.667H324.333V345.098H330.333V308.667Z" fill="#170E10"/>
<path d="M352 308.667H346V345.098H352V308.667Z" fill="#170E10"/>
<path opacity="0.55" d="M106.032 604.564C107.983 604.564 109.564 602.983 109.564 601.032C109.564 599.081 107.983 597.5 106.032 597.5C104.081 597.5 102.5 599.081 102.5 601.032C102.5 602.983 104.081 604.564 106.032 604.564Z" fill="white"/>
<path opacity="0.55" d="M127.597 643.5C130.082 643.5 132.097 641.485 132.097 639C132.097 636.515 130.082 634.5 127.597 634.5C125.112 634.5 123.097 636.515 123.097 639C123.097 641.485 125.112 643.5 127.597 643.5Z" fill="white"/>
<path opacity="0.53" d="M124.061 619.732C126.546 619.732 128.561 617.717 128.561 615.232C128.561 612.747 126.546 610.732 124.061 610.732C121.576 610.732 119.561 612.747 119.561 615.232C119.561 617.717 121.576 619.732 124.061 619.732Z" fill="#333333"/>
<path opacity="0.53" d="M93.775 624.339C95.6191 624.339 97.114 622.844 97.114 621C97.114 619.156 95.6191 617.661 93.775 617.661C91.931 617.661 90.436 619.156 90.436 621C90.436 622.844 91.931 624.339 93.775 624.339Z" fill="#333333"/>
<path opacity="0.55" d="M556.375 654.25C557.687 654.25 558.75 653.187 558.75 651.875C558.75 650.563 557.687 649.5 556.375 649.5C555.063 649.5 554 650.563 554 651.875C554 653.187 555.063 654.25 556.375 654.25Z" fill="white"/>
<path opacity="0.53" d="M570.875 664.75C572.739 664.75 574.25 663.239 574.25 661.375C574.25 659.511 572.739 658 570.875 658C569.011 658 567.5 659.511 567.5 661.375C567.5 663.239 569.011 664.75 570.875 664.75Z" fill="#333333"/>
<path opacity="0.55" d="M723.632 605.375C724.944 605.375 726.007 604.312 726.007 603C726.007 601.688 724.944 600.625 723.632 600.625C722.32 600.625 721.257 601.688 721.257 603C721.257 604.312 722.32 605.375 723.632 605.375Z" fill="white"/>
<path opacity="0.55" d="M743.257 634.428C745.143 634.428 746.671 632.899 746.671 631.014C746.671 629.128 745.143 627.6 743.257 627.6C741.372 627.6 739.843 629.128 739.843 631.014C739.843 632.899 741.372 634.428 743.257 634.428Z" fill="white"/>
<path opacity="0.53" d="M738.132 615.875C739.996 615.875 741.507 614.364 741.507 612.5C741.507 610.636 739.996 609.125 738.132 609.125C736.268 609.125 734.757 610.636 734.757 612.5C734.757 614.364 736.268 615.875 738.132 615.875Z" fill="#333333"/>
<path opacity="0.53" d="M711.282 652.875C713.146 652.875 714.657 651.364 714.657 649.5C714.657 647.636 713.146 646.125 711.282 646.125C709.418 646.125 707.907 647.636 707.907 649.5C707.907 651.364 709.418 652.875 711.282 652.875Z" fill="#333333"/>
<path opacity="0.55" d="M879.06 619.327C881.668 619.327 883.783 617.212 883.783 614.604C883.783 611.996 881.668 609.881 879.06 609.881C876.452 609.881 874.337 611.996 874.337 614.604C874.337 617.212 876.452 619.327 879.06 619.327Z" fill="white"/>
<path opacity="0.53" d="M877.14 642.666C878.997 642.666 880.502 641.161 880.502 639.304C880.502 637.447 878.997 635.942 877.14 635.942C875.283 635.942 873.778 637.447 873.778 639.304C873.778 641.161 875.283 642.666 877.14 642.666Z" fill="#333333"/>
<path opacity="0.53" d="M860.908 607.173C862.772 607.173 864.283 605.662 864.283 603.798C864.283 601.934 862.772 600.423 860.908 600.423C859.044 600.423 857.533 601.934 857.533 603.798C857.533 605.662 859.044 607.173 860.908 607.173Z" fill="#333333"/>
<path d="M712.763 726C712.763 714.549 722.046 705.266 733.497 705.266C744.948 705.266 754.231 714.549 754.231 726H712.763Z" fill="#E97E1C"/>
<path opacity="0.53" d="M739.648 706.194C728.701 702.805 717.08 708.932 713.691 719.879C713.077 721.861 712.764 723.925 712.763 726H725.063C725.064 716.917 730.974 708.891 739.648 706.194Z" fill="#333333"/>
<path d="M754.23 731H712.763C710.002 731 707.763 728.761 707.763 726C707.674 711.788 719.122 700.194 733.335 700.105C747.547 700.016 759.141 711.464 759.23 725.677C759.231 725.785 759.231 725.893 759.23 726.001C759.23 728.761 756.991 731 754.23 731ZM718.577 721H748.416C745.653 712.76 736.733 708.32 728.493 711.084C723.816 712.652 720.145 716.323 718.577 721Z" fill="#170E10"/>
<path d="M739 726C739.015 709.542 752.368 696.212 768.827 696.227C785.264 696.242 798.586 709.563 798.6 726H739Z" fill="#DC3545"/>
<path opacity="0.53" d="M774.548 696.758C758.399 693.584 742.734 704.101 739.56 720.25C739.188 722.144 739 724.069 739 726H750.5C750.502 711.76 760.576 699.51 774.548 696.758Z" fill="#333333"/>
<path d="M798.6 731H739C736.239 731 734 728.761 734 726C733.985 706.781 749.553 691.188 768.772 691.172C787.992 691.157 803.584 706.725 803.6 725.944C803.6 725.962 803.6 725.981 803.6 725.999C803.6 728.761 801.361 731 798.6 731ZM744.5 721H793.089C790.338 707.583 777.23 698.936 763.813 701.687C754.091 703.681 746.494 711.278 744.5 721Z" fill="#170E10"/>
</svg>
