<svg width="534" height="534" viewBox="0 0 534 534" fill="none" xmlns="http://www.w3.org/2000/svg">
<g clip-path="url(#clip0)">
<path d="M355.946 151.136C365.764 151.136 373.724 143.173 373.724 133.355V8.88876H320.383V151.136H355.946Z" fill="#FFEFDA"/>
<path d="M160.358 8.88876V133.355C160.358 143.177 168.318 151.136 178.14 151.136H213.703V8.88876H160.358Z" fill="#FFEFDA"/>
<path d="M107.014 8.88876V97.7959C107.014 107.614 114.978 115.573 124.795 115.573H160.358V8.88876H107.014Z" fill="#DC3545"/>
<path d="M409.287 115.573C419.108 115.573 427.068 107.614 427.068 97.7959V8.88876H373.728V115.573H409.287Z" fill="#DC3545"/>
<path d="M320.383 8.88876H213.699V151.136H320.383V8.88876Z" fill="#B82F3D"/>
<path d="M98.1252 355.613C98.1252 448.904 173.752 524.527 267.043 524.527C360.33 524.527 435.957 448.904 435.957 355.613C435.957 262.322 360.33 186.695 267.043 186.695C173.795 186.801 98.2267 262.365 98.1252 355.613V355.613ZM267.043 213.365C345.601 213.365 409.286 277.051 409.286 355.613C409.286 434.171 345.601 497.856 267.043 497.856C188.481 497.856 124.795 434.171 124.795 355.613C124.795 277.054 188.481 213.365 267.043 213.365V213.365Z" fill="#DC3545"/>
<path d="M267.043 497.856C345.601 497.856 409.287 434.171 409.287 355.613C409.287 277.054 345.601 213.369 267.043 213.369C188.481 213.369 124.795 277.054 124.795 355.613C124.795 434.175 188.481 497.856 267.043 497.856V497.856ZM247.661 337.831L267.043 278.194L286.421 337.831H349.126L298.398 374.69L317.772 434.327L267.043 397.468L216.314 434.327L235.688 374.69L184.96 337.831H247.661Z" fill="#FFEFDA"/>
<path d="M216.314 434.327L267.043 397.468L317.768 434.327L298.398 374.69L349.126 337.831H286.421L267.043 278.194L247.661 337.831H184.956L235.684 374.69L216.314 434.327Z" fill="#B82F3D"/>
<path d="M349.126 328.943H292.878L275.498 275.45C273.964 270.785 268.94 268.248 264.275 269.778C261.593 270.66 259.485 272.764 258.603 275.45L241.208 328.943H184.959C180.049 328.939 176.067 332.921 176.067 337.831C176.067 340.677 177.429 343.351 179.729 345.026L225.258 378.087L207.878 431.579C206.36 436.252 208.917 441.268 213.585 442.783C216.291 443.665 219.258 443.197 221.561 441.522L267.043 408.457L312.552 441.522C316.523 444.407 322.085 443.528 324.97 439.554C326.645 437.251 327.113 434.288 326.235 431.579L308.828 378.087L354.33 345.026C358.304 342.137 359.182 336.578 356.297 332.608C354.627 330.309 351.964 328.95 349.126 328.943V328.943ZM293.17 367.5C290.055 369.764 288.755 373.777 289.946 377.439L300.826 411.05L272.27 390.282C269.155 388.018 264.935 388.018 261.816 390.282L233.26 411.05L244.179 377.439C245.369 373.773 244.066 369.764 240.95 367.5L212.325 346.72H247.665C251.518 346.72 254.93 344.241 256.12 340.58L267.047 306.965L277.973 340.58C279.164 344.241 282.576 346.72 286.429 346.72H321.765L293.17 367.5Z" fill="#221122"/>
<path d="M275.932 178.259V160.025H355.946C370.675 160.025 382.616 148.084 382.616 133.355V124.462H409.287C424.019 124.462 435.961 112.525 435.961 97.792V8.88876C435.961 3.98179 431.979 0 427.068 0H107.014C102.107 0 98.1253 3.98179 98.1253 8.88876V97.7959C98.1253 112.525 110.067 124.466 124.795 124.466H151.47V133.355C151.47 148.087 163.407 160.029 178.14 160.029H258.154V178.263C160.073 183.17 84.5482 266.659 89.459 364.736C94.366 462.813 177.855 538.338 275.932 533.427C374.009 528.52 449.534 445.031 444.623 346.954C440.06 255.744 367.142 182.827 275.932 178.259ZM355.946 142.244H329.272V17.7814H364.835V133.355C364.835 138.266 360.857 142.244 355.946 142.244ZM418.179 97.7959C418.179 102.703 414.197 106.685 409.287 106.685H382.616V17.7814H418.179V97.7959ZM311.495 17.7814V142.247H222.591V17.7814H311.495ZM124.795 106.685C119.888 106.685 115.907 102.703 115.907 97.7959V17.7814H151.47V106.685H124.795ZM169.247 133.355V17.7814H204.81V142.247H178.14C173.229 142.244 169.247 138.266 169.247 133.355ZM267.043 515.638C178.659 515.638 107.014 443.993 107.014 355.613C107.014 267.233 178.663 195.588 267.043 195.588C355.419 195.588 427.068 267.233 427.068 355.613C426.966 443.95 355.38 515.536 267.043 515.638Z" fill="#221122"/>
<path d="M267.043 204.477C183.57 204.477 115.907 272.144 115.907 355.613C115.907 439.082 183.574 506.749 267.043 506.749C350.508 506.749 418.175 439.082 418.175 355.613C418.085 272.183 350.473 204.57 267.043 204.477ZM267.043 488.968C193.392 488.968 133.688 429.264 133.688 355.613C133.688 281.965 193.392 222.258 267.043 222.258C340.69 222.258 400.394 281.961 400.394 355.613C400.312 429.229 340.659 488.882 267.043 488.968V488.968Z" fill="#221122"/>
</g>
<defs>
<clipPath id="clip0">
<rect width="534" height="534" fill="white"/>
</clipPath>
</defs>
</svg>
