<svg width="64" height="64" viewBox="0 0 64 64" fill="none" xmlns="http://www.w3.org/2000/svg">
<path d="M52 55C50.89 55.336 49.499 55 46 55C44.877 55 44.031 55.129 43 55H42C37 55 40.349 56.795 38.639 58.125C36.968 59.43 36.028 60.825 36.028 62H20.361C20.361 55.542 22.1 52.94 21.667 47.792C21.246 42.798 21.667 42.625 21.667 42.625C21.667 42.625 19.056 40.042 19.056 33.583C19.056 28.416 19.056 18.083 19.056 18.083H45.167V25.833C45.167 27.125 47.295 27.435 48.026 27.99C48.666 28.468 49.083 29.178 49.083 29.979C49.083 31.258 48.039 32.291 46.746 32.291H45.166L46.807 39.879L48 45.208L49.756 47.791L52 53C52.431 53.53 52.653 54.793 52 55Z" fill="#EFD8BE"/>
<path d="M45.167 19.083V26.833C45.167 28.125 47.295 28.435 48.026 28.99C48.666 29.468 49.083 30.178 49.083 30.979C49.083 32.258 48.039 33.291 46.746 33.291H45.166L46.807 40.879L48 46.208L49.756 48.791L52 52C52.66 53.265 52.461 54.513 51 55C45 57 39 55 39 55C38 56 39.71 57.67 38 59C36.329 60.305 36.028 61.825 36.028 63H20.361C20.361 56.542 22.229 49.937 22.229 44.771" fill="#EFD8BE"/>
<path d="M36.027 64H20.361C19.808 64 19.361 63.553 19.361 63C19.361 59.517 19.882 56.068 20.384 52.734C20.819 49.855 21.229 47.134 21.229 44.77C21.229 44.217 21.676 43.77 22.229 43.77C22.782 43.77 23.229 44.217 23.229 44.77C23.229 47.285 22.808 50.077 22.362 53.033C21.919 55.969 21.463 58.994 21.376 62H35.101C35.33 60.489 36.096 59.219 37.385 58.212C37.867 57.837 37.853 57.543 37.74 56.75C37.639 56.047 37.503 55.083 38.293 54.293C38.56 54.026 38.952 53.931 39.315 54.051C39.373 54.07 45.086 55.914 50.683 54.052C51.019 53.94 51.231 53.781 51.312 53.58C51.415 53.327 51.351 52.941 51.14 52.517L47.172 46.771C47.102 46.667 47.051 46.549 47.024 46.427L45.832 41.099L44.189 33.503C44.126 33.208 44.199 32.899 44.388 32.664C44.577 32.429 44.864 32.292 45.166 32.292H46.745C47.482 32.292 48.082 31.703 48.082 30.98C48.082 30.373 47.671 29.975 47.426 29.792C47.298 29.695 46.953 29.553 46.677 29.438C45.677 29.024 44.166 28.398 44.166 26.834V19.084C44.166 18.531 44.613 18.084 45.166 18.084C45.719 18.084 46.166 18.531 46.166 19.084V26.834C46.166 27.062 47.093 27.445 47.442 27.59C47.884 27.774 48.302 27.946 48.63 28.195C49.55 28.883 50.082 29.899 50.082 30.98C50.082 32.806 48.585 34.292 46.745 34.292H46.405L48.933 45.804L50.581 48.23L52.817 51.427C52.841 51.462 52.864 51.499 52.884 51.537C53.396 52.518 53.495 53.511 53.164 54.33C52.95 54.857 52.456 55.567 51.313 55.948C46.475 57.561 41.708 56.726 39.684 56.229C39.693 56.303 39.705 56.383 39.716 56.468C39.834 57.297 40.031 58.684 38.611 59.788C37.189 60.898 37.024 62.152 37.024 62.999C37.027 63.553 36.58 64 36.027 64Z" fill="#221122"/>
<path d="M46 2V11C46 11 43.932 4.552 36.028 1C36.028 1 38 5.649 38 11C38 11 35.761 9 29 9C20.887 9 18 14 18 14C18 14 15.056 13.351 11 8C11 12.013 14 17 14 17L6 16C11.105 17.325 12 21 12 21C12 21 10 23.833 10 29C10 37.026 17.75 41.042 17.75 41.042C21.806 41.042 22.229 37.962 22.229 37.962L24 38C24 28.958 22 27 22 27L27 28C27 28 26.542 24.453 23 22C36.522 22 45 25 45 25C47.611 25 53 23.351 53 18C53 11.31 46 2 46 2Z" fill="#DC3545"/>
<path d="M36.973 15.241C31.069 14.071 28.301 11.151 21 17C20.866 17.107 20.694 17.179 20.499 17.223C18.907 17.588 17.587 15.91 18.131 14.369C18.374 13.679 18.811 13.094 19.487 12.756L27 9L36.454 10.537C37.928 10.805 39 12.089 39 13.587C39 14.723 38.087 15.462 36.973 15.241Z" fill="#B82F3D"/>
<path d="M39.944 35.5C39.944 32.462 42.419 30 45.472 30C48.525 30 51 32.462 51 35.5C51 38.538 48.525 41 45.472 41" fill="#E2E9F7"/>
<path d="M45.473 42C44.92 42 44.473 41.553 44.473 41C44.473 40.447 44.92 40 45.473 40C47.969 40 50 37.981 50 35.5C50 33.019 47.969 31 45.473 31C42.976 31 40.945 33.019 40.945 35.5C40.945 36.053 40.498 36.5 39.945 36.5C39.392 36.5 38.945 36.053 38.945 35.5C38.945 31.916 41.874 29 45.473 29C49.072 29 52 31.916 52 35.5C52 39.084 49.072 42 45.473 42Z" fill="#221122"/>
<path d="M47.5 37C48.3284 37 49 36.3284 49 35.5C49 34.6716 48.3284 34 47.5 34C46.6716 34 46 34.6716 46 35.5C46 36.3284 46.6716 37 47.5 37Z" fill="#221122"/>
<path d="M17.75 42.042C17.59 42.042 17.432 42.004 17.29 41.93C16.951 41.755 8.99998 37.536 8.99998 29C8.99998 24.714 10.309 21.924 10.9 20.88C10.542 20.028 9.30898 17.893 5.74898 16.968C5.23798 16.836 4.91898 16.33 5.01798 15.812C5.11798 15.295 5.59798 14.949 6.12398 15.008L12.208 15.769C11.28 13.877 9.99998 10.765 9.99998 7.99999C9.99998 7.56999 10.274 7.18899 10.682 7.05199C11.087 6.91599 11.538 7.05399 11.797 7.39599C14.49 10.95 16.645 12.306 17.637 12.787C18.824 11.293 22.213 7.99999 29 7.99999C32.959 7.99999 35.462 8.65799 36.931 9.26699C36.591 4.94699 35.123 1.42999 35.107 1.38999C34.947 1.01199 35.035 0.573993 35.329 0.285993C35.624 -7.30157e-06 36.061 -0.0810073 36.438 0.0889927C40.776 2.03799 43.44 4.80799 45 7.02899V1.99999C45 1.56899 45.275 1.18799 45.684 1.05199C46.089 0.913993 46.541 1.05499 46.799 1.39999C47.094 1.78999 54 11.057 54 18C54 24.045 47.937 26 45 26C44.887 26 44.773 25.98 44.667 25.943C44.589 25.915 37.283 23.386 25.646 23.039C27.642 25.354 27.976 27.744 27.993 27.872C28.034 28.191 27.919 28.512 27.683 28.731C27.446 28.95 27.12 29.039 26.804 28.98L23.807 28.38C24.397 30.082 25 33.033 25 38C25 38.269 24.892 38.526 24.699 38.715C24.508 38.903 24.247 38.992 23.978 39L22.975 38.979C22.418 40.347 20.91 42.042 17.75 42.042ZM11.04 17.638C12.557 19.148 12.946 20.659 12.972 20.764C13.04 21.044 12.984 21.341 12.818 21.577C12.802 21.6 11 24.256 11 29C11 35.594 16.819 39.343 18.003 40.037C20.812 39.93 21.204 38.035 21.24 37.813C21.32 37.329 21.741 36.961 22.229 36.961C22.237 36.961 22.244 36.961 22.25 36.961L22.99 36.978C22.856 29.58 21.289 27.706 21.272 27.686C20.99 27.364 20.931 26.884 21.145 26.513C21.359 26.141 21.773 25.933 22.195 26.019L25.583 26.697C25.131 25.597 24.222 24.063 22.43 22.822C22.071 22.573 21.914 22.119 22.045 21.702C22.176 21.284 22.562 21 23 21C35.643 21 43.843 23.558 45.158 23.997C47.1 23.936 52 22.762 52 18C52 13.816 49.015 8.41499 47 5.24699V11C47 11.492 46.642 11.912 46.154 11.988C45.675 12.06 45.199 11.775 45.048 11.305C45.031 11.253 43.397 6.43499 37.79 3.04799C38.356 4.97899 39 7.85999 39 11C39 11.395 38.769 11.752 38.408 11.913C38.05 12.073 37.628 12.009 37.334 11.746C37.324 11.738 35.177 9.99999 29 9.99999C21.617 9.99999 18.973 14.321 18.863 14.505C18.642 14.877 18.204 15.068 17.785 14.977C17.515 14.917 15.507 14.391 12.6 11.413C13.432 14.092 14.836 16.452 14.857 16.486C15.053 16.813 15.046 17.225 14.837 17.547C14.629 17.867 14.263 18.04 13.875 17.993L11.04 17.638Z" fill="#221122"/>
<path d="M24.195 44.771C22.032 44.771 17.75 43.182 17.75 41.042C17.75 38.902 19.177 37.167 21.34 37.167C22.614 37.167 24.523 40.245 25.178 40.88" fill="#EFD8BE"/>
<path d="M44 47C44 47 46.533 47 48 47C49.467 47 51 45.467 51 44C51 42.533 49.467 41 48 41H45" fill="#EFD8BE"/>
<path d="M48 48H44C43.447 48 43 47.553 43 47C43 46.447 43.447 46 44 46H48C48.916 46 50 44.916 50 44C50 43.084 48.916 42 48 42H45C44.447 42 44 41.553 44 41C44 40.447 44.447 40 45 40H48C50.019 40 52 41.981 52 44C52 46.019 50.019 48 48 48Z" fill="#221122"/>
<path d="M44.842 41.88C44.43 41.88 44.043 41.623 43.899 41.212C43.249 39.362 41.44 38.167 39.293 38.167C38.74 38.167 38.293 37.72 38.293 37.167C38.293 36.614 38.74 36.167 39.293 36.167C42.302 36.167 44.851 37.887 45.786 40.548C45.97 41.069 45.695 41.64 45.175 41.823C45.063 41.862 44.952 41.88 44.842 41.88Z" fill="#221122"/>
<path d="M35 41C38.3137 41 41 38.3137 41 35C41 31.6863 38.3137 29 35 29C31.6863 29 29 31.6863 29 35C29 38.3137 31.6863 41 35 41Z" fill="#E2E9F7"/>
<path d="M35 42C31.141 42 28 38.859 28 35C28 31.141 31.141 28 35 28C38.859 28 42 31.141 42 35C42 38.859 38.859 42 35 42ZM35 30C32.243 30 30 32.243 30 35C30 37.757 32.243 40 35 40C37.757 40 40 37.757 40 35C40 32.243 37.757 30 35 30Z" fill="#221122"/>
<path d="M36.5 37C37.3284 37 38 36.3284 38 35.5C38 34.6716 37.3284 34 36.5 34C35.6716 34 35 34.6716 35 35.5C35 36.3284 35.6716 37 36.5 37Z" fill="#221122"/>
<path d="M22.229 45.771C19.637 45.771 16.75 43.829 16.75 41.042C16.75 38.263 18.724 36.167 21.34 36.167C22.664 36.167 23.742 36.356 24.696 37.282C25.092 37.667 25.102 38.3 24.717 38.696C24.331 39.092 23.698 39.102 23.303 38.717C22.926 38.352 22.52 38.166 21.339 38.166C19.815 38.166 18.749 39.349 18.749 41.041C18.749 42.578 20.619 43.77 22.228 43.77C22.781 43.77 23.228 44.217 23.228 44.77C23.228 45.323 22.782 45.771 22.229 45.771Z" fill="#221122"/>
<path d="M28 53C27.447 53 27 52.553 27 52C27 51.447 27.447 51 28 51C29.903 51 30 49.334 30 49C30 48.447 30.447 48 31 48C31.553 48 32 48.447 32 49C32 50.607 30.935 53 28 53Z" fill="#221122"/>
<path d="M22.772 17.945C22.449 17.945 22.131 17.789 21.939 17.5L20.83 15.837C20.523 15.378 20.647 14.757 21.107 14.45C21.565 14.143 22.188 14.267 22.494 14.727L23.603 16.39C23.91 16.849 23.786 17.47 23.326 17.777C23.156 17.891 22.963 17.945 22.772 17.945Z" fill="#221122"/>
<path d="M26.585 16.24C26.141 16.24 25.734 15.941 25.618 15.491L25.117 13.555C24.978 13.02 25.3 12.474 25.834 12.336C26.367 12.191 26.915 12.519 27.053 13.053L27.554 14.989C27.693 15.524 27.371 16.07 26.837 16.208C26.753 16.23 26.668 16.24 26.585 16.24Z" fill="#221122"/>
<path d="M30.746 15.9C30.718 15.9 30.689 15.899 30.66 15.896C30.11 15.85 29.702 15.366 29.749 14.815L29.918 12.823C29.965 12.273 30.441 11.862 30.999 11.912C31.549 11.958 31.957 12.442 31.91 12.993L31.741 14.985C31.697 15.507 31.261 15.9 30.746 15.9Z" fill="#221122"/>
<path d="M34.87 16.889C34.753 16.889 34.633 16.868 34.516 16.825C33.999 16.63 33.739 16.053 33.934 15.536L34.641 13.665C34.837 13.148 35.414 12.888 35.93 13.083C36.447 13.278 36.707 13.855 36.512 14.372L35.805 16.243C35.654 16.643 35.273 16.889 34.87 16.889Z" fill="#221122"/>
<path d="M39 56C38.896 56 38.789 55.983 38.684 55.948C38.232 55.798 37.825 55.67 37.447 55.551C35.252 54.861 33.926 54.445 30.401 51.8C29.959 51.469 29.869 50.842 30.201 50.401C30.532 49.959 31.16 49.871 31.6 50.201C34.852 52.639 35.987 52.996 38.047 53.644C38.435 53.766 38.852 53.897 39.317 54.052C39.84 54.226 40.124 54.792 39.949 55.317C39.809 55.735 39.419 56 39 56Z" fill="#221122"/>
</svg>
