<svg width="64" height="64" viewBox="0 0 64 64" fill="none" xmlns="http://www.w3.org/2000/svg">
<path d="M46.637 42.67C55.946 40.96 63 32.804 63 23V13C63 12.777 62.963 12.562 62.896 12.362C62.54 11.304 61.237 10.903 60.258 11.439C59.183 12.028 57.092 13 55 13C52 13 49.06 11.661 46.243 9.255C42.408 5.981 37.439 4 32 4C26.561 4 21.591 5.981 17.757 9.255C14.94 11.661 12 13 9 13C6.741 13 4.483 11.866 3.504 11.306C3.002 11.018 2.375 11.013 1.893 11.334C1.355 11.692 1 12.305 1 13V23C1 32.776 8.014 40.913 17.283 42.655" fill="#DC3545"/>
<path d="M63 23V13C63 12.957 62.983 12.919 62.98 12.877C60.228 12.888 58 15.12 58 17.875V23C58 30.242 52.841 36.446 45.733 37.752C43.322 38.195 41.644 40.301 41.645 42.668L46.637 42.67C55.946 40.96 63 32.804 63 23ZM17.283 42.655L22.276 42.658C22.279 40.297 20.611 38.193 18.207 37.741C11.134 36.412 6 30.212 6 23V18.062C6 15.3 3.761 13.062 1 13.062V23C1 32.776 8.014 40.913 17.283 42.655Z" fill="#B82F3D"/>
<path d="M46.817 43.653L46.456 41.686C55.463 40.032 62 32.173 62 23V13C62 12.89 61.982 12.782 61.948 12.681C61.867 12.44 61.677 12.322 61.532 12.265C61.277 12.165 60.979 12.184 60.738 12.316C59.591 12.945 57.32 14 55 14C51.854 14 48.689 12.66 45.594 10.016C41.806 6.781 36.978 5 32 5C27.022 5 22.194 6.781 18.406 10.016C15.311 12.66 12.146 14 9 14C6.562 14 4.198 12.856 3.007 12.174C2.821 12.068 2.602 12.065 2.448 12.166C2.167 12.353 2 12.665 2 13V23C2 32.135 8.505 39.988 17.468 41.672L17.099 43.638C7.191 41.776 0 33.096 0 23V13C0 11.993 0.501 11.059 1.34 10.501C2.13 9.976 3.151 9.95 4.001 10.438C4.821 10.908 6.95 12 9 12C11.656 12 14.384 10.821 17.107 8.495C21.258 4.952 26.547 3 32 3C37.453 3 42.742 4.952 46.893 8.495C49.616 10.821 52.344 12 55 12C56.874 12 58.798 11.099 59.777 10.562C60.531 10.149 61.462 10.091 62.26 10.402C63.015 10.697 63.592 11.295 63.843 12.043C63.947 12.351 64 12.672 64 13V23C64 33.139 56.773 41.825 46.817 43.653Z" fill="#221122"/>
<path d="M44.892 21.014C44.319 18.45 41.558 16.712 38.671 17.862C36.993 18.53 36.013 20.221 36.001 22.027C35.985 24.39 33.922 26.266 31.497 25.969C29.515 25.727 28.029 23.931 28.001 21.935C27.966 19.48 25.965 17.5 23.501 17.5C21.548 17.5 19.886 18.744 19.263 20.482C18.863 21.597 18.483 22.72 17.919 23.762C16.835 25.766 16.102 28.012 16.012 30.379C15.926 32.644 16.312 34.808 17.079 36.783C17.811 38.668 17.937 40.734 17.347 42.668C17.11 43.443 16.988 44.267 17.001 45.123C17.029 46.978 18 50 22 52C25.225 53.612 28 61 32 61C36 61 37 58.294 37 58C37 57 40 53 42 52C44 51 46.972 46.978 46.999 45.117C47.011 44.267 46.89 43.448 46.656 42.678C46.056 40.705 46.227 38.608 46.961 36.68C47.632 34.915 48 33.001 48 31C48 28.32 47.206 25.813 45.988 23.601C45.534 22.778 45.097 21.932 44.892 21.014Z" fill="#FFF8EE"/>
<path d="M24 38C23.447 38 23 37.552 23 37V29C23 28.448 23.447 28 24 28C24.553 28 25 28.448 25 29V37C25 37.552 24.553 38 24 38ZM40 38C39.447 38 39 37.552 39 37V29C39 28.448 39.447 28 40 28C40.553 28 41 28.448 41 29V37C41 37.552 40.553 38 40 38ZM40 48C39.447 48 39 47.552 39 47C39 46.448 39.447 46 40 46C41.103 46 42 45.103 42 44C42 42.897 41.103 42 40 42C39.447 42 39 41.552 39 41C39 40.448 39.447 40 40 40C42.206 40 44 41.794 44 44C44 46.206 42.206 48 40 48ZM24 48C21.794 48 20 46.206 20 44C20 41.794 21.794 40 24 40C24.553 40 25 40.448 25 41C25 41.552 24.553 42 24 42C22.897 42 22 42.897 22 44C22 45.103 22.897 46 24 46C24.553 46 25 46.448 25 47C25 47.552 24.553 48 24 48Z" fill="#DC3545"/>
<path d="M32 62V60C33.777 60 35.351 59.062 36.105 57.553C37.336 55.092 38.225 53.315 41.444 51.166C44.508 49.119 45.999 47.141 45.999 45.117C45.999 44.203 45.775 43.518 45.538 42.793C45.286 42.021 45 41.145 45 40C45 39.028 45.364 37.785 45.785 36.346C46.354 34.403 47 32.2 47 30C47 27.169 46.016 24.34 44.075 21.591C43.448 20.703 41.541 18 39 18C37.34 18 37.017 19.397 37 21.976C36.981 24.772 34.738 27 32 27V25C33.644 25 34.989 23.663 35 22.02C35.012 20.179 35.038 16 39 16C42.577 16 44.935 19.34 45.709 20.438C47.893 23.53 49 26.748 49 30C49 32.487 48.282 34.938 47.705 36.909C47.343 38.146 47 39.315 47 40C47 40.827 47.204 41.45 47.439 42.171C47.702 42.974 47.999 43.884 47.999 45.116C47.999 47.859 46.219 50.382 42.556 52.828C39.778 54.683 39.109 56.019 37.896 58.444C36.799 60.639 34.54 62 32 62ZM32 62C29.46 62 27.201 60.639 26.105 58.447C24.891 56.019 24.222 54.683 21.444 52.828C17.783 50.383 16.002 47.86 16.001 45.117C16 43.884 16.298 42.973 16.561 42.17C16.796 41.449 17 40.826 17 40C17 39.315 16.657 38.146 16.295 36.909C15.718 34.938 15 32.487 15 30C15 26.748 16.107 23.53 18.292 20.438C19.065 19.34 21.423 16 25 16C28.962 16 28.988 20.179 29 21.963C29.011 23.663 30.356 25 32 25V27C29.262 27 27.019 24.772 27 22.034C26.983 19.397 26.66 18 25 18C22.459 18 20.552 20.703 19.926 21.591C17.984 24.34 17 27.169 17 30C17 32.2 17.646 34.403 18.215 36.346C18.636 37.785 19 39.028 19 40C19 41.145 18.714 42.02 18.462 42.792C18.225 43.517 18.001 44.202 18.001 45.116C18.002 47.14 19.491 49.119 22.556 51.165C25.775 53.314 26.663 55.091 27.893 57.549C28.649 59.062 30.223 60 32 60V62Z" fill="#221122"/>
<path d="M12.752 37.706C12.576 37.706 12.398 37.66 12.237 37.562C11.763 37.277 11.611 36.663 11.896 36.189L12.928 34.476C13.212 34.003 13.827 33.851 14.3 34.136C14.774 34.421 14.926 35.035 14.641 35.509L13.609 37.222C13.422 37.533 13.091 37.706 12.752 37.706ZM8.462 33.935C8.166 33.935 7.874 33.805 7.677 33.556C7.334 33.123 7.407 32.494 7.841 32.151L9.409 30.91C9.844 30.566 10.471 30.642 10.813 31.074C11.156 31.507 11.083 32.136 10.649 32.479L9.081 33.72C8.897 33.865 8.679 33.935 8.462 33.935ZM5.775 28.894C5.352 28.894 4.96 28.623 4.823 28.199C4.654 27.674 4.943 27.11 5.469 26.941L7.373 26.329C7.896 26.16 8.462 26.45 8.631 26.975C8.8 27.5 8.511 28.064 7.985 28.233L6.081 28.845C5.979 28.878 5.877 28.894 5.775 28.894ZM7 23.278H5C4.447 23.278 4 22.83 4 22.278C4 21.726 4.447 21.278 5 21.278H7C7.553 21.278 8 21.726 8 22.278C8 22.83 7.553 23.278 7 23.278ZM7 17.892H5C4.447 17.892 4 17.444 4 16.892C4 16.34 4.447 15.892 5 15.892H7C7.553 15.892 8 16.34 8 16.892C8 17.444 7.553 17.892 7 17.892Z" fill="#221122"/>
<path d="M59 18.309H57C56.447 18.309 56 17.861 56 17.309C56 16.757 56.447 16.309 57 16.309H59C59.553 16.309 60 16.757 60 17.309C60 17.861 59.553 18.309 59 18.309ZM59 23.695H57C56.447 23.695 56 23.247 56 22.695C56 22.143 56.447 21.695 57 21.695H59C59.553 21.695 60 22.143 60 22.695C60 23.247 59.553 23.695 59 23.695ZM58.225 29.311C58.123 29.311 58.021 29.295 57.919 29.263L56.015 28.651C55.489 28.482 55.2 27.919 55.369 27.393C55.539 26.867 56.102 26.579 56.627 26.747L58.531 27.359C59.057 27.528 59.346 28.091 59.177 28.617C59.04 29.041 58.647 29.311 58.225 29.311ZM55.538 34.352C55.321 34.352 55.102 34.282 54.919 34.136L53.351 32.895C52.917 32.552 52.844 31.923 53.187 31.49C53.529 31.058 54.158 30.982 54.591 31.326L56.159 32.567C56.593 32.91 56.666 33.539 56.323 33.972C56.126 34.222 55.834 34.352 55.538 34.352ZM51.248 38.122C50.909 38.122 50.578 37.95 50.391 37.638L49.359 35.925C49.074 35.452 49.226 34.838 49.699 34.552C50.174 34.266 50.787 34.419 51.072 34.892L52.104 36.605C52.389 37.078 52.237 37.692 51.764 37.978C51.602 38.076 51.424 38.122 51.248 38.122Z" fill="#221122"/>
<path d="M20.291 34.383C20.115 34.893 20 35.431 20 36C20 38.761 22.239 41 25 41C26.67 41 28.139 40.174 29.047 38.916C25.692 38.474 22.396 37.113 20.291 34.383Z" fill="#F9DD8F"/>
<path d="M34.921 38.877C35.827 40.158 37.312 41 39 41C41.761 41 44 38.761 44 36C44 35.517 43.91 35.06 43.782 34.619C41.299 36.729 38.125 38.357 34.921 38.877Z" fill="#F9DD8F"/>
<path d="M25 42C21.691 42 19 39.309 19 36C19 35.19 19.158 34.404 19.472 33.664L21.314 34.443C21.105 34.936 21 35.459 21 36C21 38.206 22.794 40 25 40C26.392 40 27.662 39.294 28.398 38.111L30.095 39.168C28.993 40.941 27.088 42 25 42Z" fill="#221122"/>
<path d="M39 42C36.958 42 35.074 40.976 33.963 39.261L35.641 38.173C36.383 39.317 37.639 40 39 40C41.206 40 43 38.206 43 36C43 35.48 42.901 34.975 42.708 34.497L44.562 33.745C44.853 34.462 45 35.221 45 36C45 39.309 42.309 42 39 42Z" fill="#221122"/>
<path d="M32 40C27.19 40 22.434 38.015 19.275 34.688C18.809 34.161 18.506 34 18 34C17.586 34 17.189 34.125 16.854 34.361L15.704 32.724C16.379 32.25 17.173 32 18 32C19.393 32 20.201 32.716 20.751 33.339C23.472 36.204 27.792 38 32 38C36.201 38 40.522 36.203 43.275 33.311C43.916 32.721 44.837 32 46 32C46.847 32 47.655 32.261 48.339 32.754L47.169 34.376C46.827 34.13 46.424 34 46 34C45.65 34 45.217 34.241 44.676 34.737C41.559 38.015 36.802 40 32 40Z" fill="#221122"/>
<path d="M38 48C37 48 35 51 35 52C35 53.657 33.657 55 32 55C30.343 55 29 53.657 29 52C29 51 27 48 26 48" fill="#F283A5"/>
<path d="M32 56C29.794 56 28 54.206 28 52C28 50.104 24.763 48.382 23.629 47.929C23.116 47.723 22.866 47.142 23.071 46.629C23.276 46.116 23.861 45.87 24.371 46.072C24.947 46.302 30 48.426 30 52C30 53.103 30.897 54 32 54C33.103 54 34 53.103 34 52C34 48.426 39.053 46.302 39.629 46.071C40.139 45.867 40.722 46.115 40.928 46.628C41.133 47.14 40.885 47.722 40.372 47.928C39.238 48.385 36 50.113 36 52C36 54.206 34.206 56 32 56Z" fill="#221122"/>
<path d="M32 49C29.462 49 26.771 48.665 23.775 47.975C23.237 47.851 22.901 47.314 23.025 46.776C23.149 46.238 23.681 45.904 24.224 46.026C27.071 46.681 29.614 47 32 47C34.371 47 36.915 46.681 39.776 46.025C40.312 45.898 40.85 46.237 40.974 46.776C41.097 47.315 40.761 47.851 40.223 47.974C37.214 48.665 34.523 49 32 49Z" fill="#221122"/>
<path d="M32 39C31.2044 39 30.4413 39.3161 29.8787 39.8787C29.3161 40.4413 29 41.2044 29 42C29 42.7956 29.3161 43.5587 29.8787 44.1213C30.4413 44.6839 31.2044 45 32 45C32.7956 45 33.5587 44.6839 34.1213 44.1213C34.6839 43.5587 35 42.7956 35 42C35 41.2044 34.6839 40.4413 34.1213 39.8787C33.5587 39.3161 32.7956 39 32 39Z" fill="#F283A5"/>
<path d="M24 37C23.7348 37 23.4804 37.1054 23.2929 37.2929C23.1054 37.4804 23 37.7348 23 38C23 38.2652 23.1054 38.5196 23.2929 38.7071C23.4804 38.8946 23.7348 39 24 39C24.2652 39 24.5196 38.8946 24.7071 38.7071C24.8946 38.5196 25 38.2652 25 38C25 37.7348 24.8946 37.4804 24.7071 37.2929C24.5196 37.1054 24.2652 37 24 37Z" fill="#221122"/>
<path d="M40 37C39.7348 37 39.4804 37.1054 39.2929 37.2929C39.1054 37.4804 39 37.7348 39 38C39 38.2652 39.1054 38.5196 39.2929 38.7071C39.4804 38.8946 39.7348 39 40 39C40.2652 39 40.5196 38.8946 40.7071 38.7071C40.8946 38.5196 41 38.2652 41 38C41 37.7348 40.8946 37.4804 40.7071 37.2929C40.5196 37.1054 40.2652 37 40 37Z" fill="#221122"/>
<path d="M32 46C29.794 46 28 44.206 28 42C28 39.794 29.794 38 32 38C34.206 38 36 39.794 36 42C36 44.206 34.206 46 32 46ZM32 40C30.897 40 30 40.897 30 42C30 43.103 30.897 44 32 44C33.103 44 34 43.103 34 42C34 40.897 33.103 40 32 40Z" fill="#221122"/>
</svg>
