<svg width="64" height="64" viewBox="0 0 64 64" fill="none" xmlns="http://www.w3.org/2000/svg">
<path d="M32.135 4C16.347 4 9 21.836 9 27C9 31.843 10.797 34.346 10.797 34.346L53.294 34.345C53.294 34.345 55 32.301 55 27C55 21.698 47.378 4 32.135 4Z" fill="#DC3545"/>
<path d="M49 49.719C49 51.742 47.898 53.605 46.124 54.579L36.245 60.002C33.549 61.271 30.435 61.304 27.712 60.094L17.842 54.586C16.088 53.607 15 51.755 15 49.745V30L26.425 25.858C30.038 24.654 33.95 24.688 37.541 25.956L49 30V49.719Z" fill="#FAEFDE"/>
<path d="M53.293 35.345C53.067 35.345 52.84 35.269 52.653 35.113C52.229 34.759 52.172 34.129 52.526 33.705C52.533 33.696 54 31.785 54 27C54 22.646 46.968 5 32.136 5C16.864 5 10 22.488 10 27C10 31.414 11.598 33.745 11.613 33.768C11.928 34.218 11.823 34.842 11.375 35.16C10.926 35.476 10.308 35.377 9.985 34.931C9.904 34.817 8 32.106 8 27C8 21.41 15.523 3 32.136 3C47.795 3 56 20.832 56 27C56 32.505 54.26 34.749 54.062 34.986C53.864 35.223 53.58 35.345 53.293 35.345Z" fill="#221122"/>
<path d="M56.864 19.627C56.477 19.627 56.109 19.401 55.945 19.024C55.726 18.517 55.959 17.928 56.466 17.709L58.301 16.914C58.812 16.693 59.397 16.928 59.616 17.434C59.835 17.941 59.602 18.53 59.095 18.749L57.26 19.544C57.131 19.6 56.996 19.627 56.864 19.627Z" fill="#221122"/>
<path d="M54.622 15.286C54.283 15.286 53.952 15.114 53.765 14.802C53.48 14.329 53.632 13.715 54.105 13.429L55.818 12.396C56.293 12.11 56.907 12.263 57.191 12.736C57.476 13.209 57.324 13.823 56.851 14.109L55.138 15.142C54.976 15.239 54.798 15.286 54.622 15.286Z" fill="#221122"/>
<path d="M51.825 11.281C51.532 11.281 51.242 11.154 51.045 10.907C50.699 10.477 50.768 9.84699 51.197 9.50099L52.756 8.24799C53.186 7.90099 53.817 7.96999 54.162 8.40099C54.508 8.83099 54.439 9.46099 54.01 9.80699L52.451 11.06C52.267 11.209 52.045 11.281 51.825 11.281Z" fill="#221122"/>
<path d="M48.507 7.719C48.265 7.719 48.023 7.632 47.83 7.455C47.424 7.081 47.396 6.449 47.77 6.042L49.124 4.57C49.499 4.163 50.131 4.138 50.537 4.51C50.943 4.884 50.971 5.516 50.597 5.923L49.243 7.395C49.046 7.61 48.776 7.719 48.507 7.719Z" fill="#221122"/>
<path d="M44.68 4.74699C44.495 4.74699 44.308 4.69599 44.141 4.58899C43.676 4.29099 43.541 3.67199 43.839 3.20699L44.919 1.52399C45.217 1.05799 45.836 0.92399 46.301 1.22199C46.766 1.51999 46.901 2.13899 46.603 2.60399L45.523 4.28699C45.331 4.58499 45.009 4.74699 44.68 4.74699Z" fill="#221122"/>
<path d="M28.781 14.894C28.781 14.894 27.046 13.775 27 13.614C26.954 13.453 29.922 7.054 29.922 7.054L31.976 9.561L34.123 7L37 13.613L35.219 15L33.804 9.667L32.069 12.174L30.151 9.613L28.781 14.894Z" fill="#221122"/>
<path d="M50 31C31 16 14 31 14 31C14 31 12.603 27.636 13 27C23 11 47 17 51 27C51.383 27.957 50.809 31.639 50 31Z" fill="#B82F3D"/>
<path d="M14.267 32.181C14.239 32.181 14.209 32.18 14.18 32.177C13.907 32.153 13.654 32.017 13.483 31.802C13.422 31.725 12 29.9 12 27.297C12 25.956 16.224 16 32 16C34.977 16 37.771 16.411 40.305 17.221C40.831 17.389 41.121 17.952 40.952 18.478C40.784 19.004 40.224 19.294 39.695 19.126C37.358 18.379 34.77 18 32 18C18.58 18 14.236 25.912 13.996 27.368C13.998 28.298 14.272 29.11 14.542 29.683C16.832 27.98 23.132 24 32 24C40.864 24 47.162 27.977 49.455 29.681C49.724 29.1 50 28.267 50 27.297C49.985 27.251 49.765 26.557 49.109 25.542C48.809 25.078 48.943 24.459 49.407 24.159C49.869 23.86 50.49 23.993 50.789 24.457C51.524 25.597 52 26.711 52 27.297C52 29.9 50.578 31.725 50.518 31.801C50.347 32.016 50.095 32.152 49.822 32.176C49.553 32.198 49.276 32.111 49.07 31.928C49.003 31.869 42.254 26 32 26C21.711 26 14.998 31.868 14.932 31.928C14.748 32.091 14.511 32.181 14.267 32.181ZM46.999 23C46.772 23 46.544 22.923 46.356 22.766C45.474 22.026 44.515 21.36 43.506 20.787C43.026 20.515 42.857 19.904 43.129 19.424C43.401 18.944 44.014 18.774 44.492 19.048C45.607 19.68 46.667 20.416 47.642 21.235C48.065 21.59 48.12 22.221 47.764 22.644C47.568 22.878 47.285 23 46.999 23Z" fill="#221122"/>
<path d="M28.001 32C27.639 32 27.289 31.803 27.111 31.458C27.051 31.344 25.779 28.988 23.158 28.988C21.325 28.988 19.636 30.296 19.619 30.309C19.186 30.649 18.557 30.574 18.216 30.142C17.875 29.709 17.946 29.082 18.379 28.74C18.469 28.668 20.617 26.987 23.158 26.987C27.028 26.987 28.816 30.398 28.89 30.543C29.141 31.035 28.947 31.637 28.454 31.889C28.31 31.965 28.154 32 28.001 32Z" fill="#221122"/>
<path d="M25 34C23.896 33.999 23.001 35.342 23 36.999C22.999 38.656 23.894 40 24.998 40C24.999 40 24.999 40 25 40C26.104 40.001 26.999 38.658 27 37.001C27.001 35.344 26.106 34 25.002 34C25.001 34 25.001 34 25 34Z" fill="#221122"/>
<path d="M35.999 32C35.846 32 35.69 31.965 35.545 31.891C35.053 31.64 34.858 31.037 35.109 30.545C35.183 30.4 36.971 26.989 40.841 26.989C43.382 26.989 45.53 28.67 45.62 28.742C46.053 29.085 46.126 29.714 45.782 30.147C45.44 30.579 44.813 30.653 44.379 30.31C44.344 30.282 42.663 28.989 40.841 28.989C38.181 28.989 36.903 31.431 36.89 31.455C36.714 31.801 36.363 32 35.999 32Z" fill="#221122"/>
<path d="M9.499 34C10.925 34 13.278 34.483 15 36.55L14.037 48.841C13.691 48.936 13.325 49 12.964 49C10.468 49 7 43.822 7 38.945C7 35.736 8.237 34 9.499 34Z" fill="#EFD8BE"/>
<path d="M39 34C37.896 33.999 37.001 35.342 37 36.999C36.999 38.656 37.894 40 38.998 40C38.999 40 38.999 40 39 40C40.104 40.001 40.999 38.658 41 37.001C41.001 35.344 40.106 34.001 39.002 34C39.001 34 39.001 34 39 34Z" fill="#221122"/>
<path d="M32 61.95C28.068 61.95 26.226 60.833 24.274 59.651C23.753 59.336 23.216 59.009 22.611 58.692C22.283 58.52 21.886 58.343 21.447 58.145C18.468 56.807 12.925 54.315 12.925 46.499C12.925 44.873 13.344 42.358 13.713 40.14C13.988 38.489 14.248 36.93 14.248 36.24C14.248 34.67 13.518 31.443 13.077 30.386C12.864 29.876 13.105 29.291 13.615 29.078C14.125 28.865 14.71 29.105 14.923 29.616C15.446 30.871 16.248 34.338 16.248 36.24C16.248 37.096 15.987 38.659 15.686 40.469C15.329 42.611 14.924 45.039 14.924 46.5C14.924 53.022 19.343 55.007 22.267 56.321C22.747 56.537 23.181 56.733 23.54 56.922C24.184 57.26 24.757 57.607 25.31 57.942C27.164 59.065 28.626 59.952 31.999 59.952C32.552 59.952 32.999 60.4 32.999 60.952C32.999 61.504 32.553 61.95 32 61.95Z" fill="#221122"/>
<path d="M46.127 42.038C44.936 43.788 42.843 44.843 39.723 45.42C39.012 48.551 35.827 50.912 32.001 50.912C28.172 50.912 24.983 48.545 24.277 45.41C18.427 44.301 17.907 42 17.907 42C17.907 42 17 42.706 17 45.849C17 49.552 19.896 49.74 19.896 49.74C19.896 49.74 20.216 53.328 23.293 53.328C24.622 53.328 25.396 52.761 25.498 52.711C25.671 52.894 27.058 55 29.168 55C30.808 55 31.966 53.984 31.966 53.984C31.966 53.984 33.248 54.946 34.997 54.946C36.981 54.946 38.505 52.748 38.505 52.748C38.505 52.748 39.294 53.322 40.797 53.322C42.301 53.322 43.79 52.24 44.168 49.698C45.391 49.698 47 48.066 47 45.959C47 42.8 46.127 42.038 46.127 42.038Z" fill="#221122"/>
<path d="M32 51C36.4183 51 40 48.0899 40 44.5C40 40.9101 36.4183 38 32 38C27.5817 38 24 40.9101 24 44.5C24 48.0899 27.5817 51 32 51Z" fill="#EFD8BE"/>
<path d="M54.501 34C53.075 34 50.722 34.483 49 36.55L49.963 48.841C50.309 48.936 50.675 49 51.036 49C53.532 49 57 43.822 57 38.945C57 35.736 55.763 34 54.501 34Z" fill="#EFD8BE"/>
<path d="M32 61.95C31.447 61.95 31 61.502 31 60.95C31 60.398 31.447 59.95 32 59.95C35.372 59.95 36.834 59.063 38.687 57.941C39.241 57.606 39.813 57.259 40.458 56.921C40.818 56.732 41.251 56.537 41.731 56.321C44.655 55.008 49.075 53.022 49.075 46.499C49.075 45.038 48.671 42.61 48.313 40.468C48.011 38.658 47.751 37.095 47.751 36.239C47.751 34.34 48.554 30.872 49.078 29.615C49.292 29.105 49.878 28.865 50.386 29.077C50.896 29.289 51.137 29.875 50.924 30.385C50.483 31.444 49.751 34.671 49.751 36.239C49.751 36.929 50.011 38.489 50.286 40.139C50.656 42.357 51.075 44.872 51.075 46.498C51.075 54.315 45.529 56.806 42.551 58.144C42.112 58.341 41.716 58.518 41.388 58.69C40.783 59.007 40.244 59.334 39.724 59.649C37.772 60.833 35.931 61.95 32 61.95ZM32 52C27.037 52 23 48.636 23 44.5C23 40.364 27.037 37 32 37C36.963 37 41 40.364 41 44.5C41 48.636 36.963 52 32 52ZM32 39C28.141 39 25 41.467 25 44.5C25 47.533 28.141 50 32 50C35.859 50 39 47.533 39 44.5C39 41.467 35.859 39 32 39ZM12.964 50C9.71 50 6 44.111 6 38.945C6 34.86 7.813 33 9.499 33C10.655 33 13.581 33.284 15.769 35.91C16.123 36.335 16.065 36.965 15.64 37.319C15.216 37.673 14.586 37.614 14.232 37.191C12.539 35.158 10.182 35 9.499 35C8.992 35 8 36.191 8 38.945C8 43.436 11.185 48 12.964 48C13.201 48 13.474 47.958 13.775 47.877C14.308 47.732 14.857 48.046 15.003 48.58C15.148 49.113 14.833 49.663 14.301 49.807C13.828 49.935 13.379 50 12.964 50Z" fill="#221122"/>
<path d="M51.036 50C50.621 50 50.172 49.935 49.7 49.807C49.168 49.662 48.853 49.113 48.998 48.58C49.144 48.047 49.693 47.734 50.226 47.877C50.526 47.958 50.799 48 51.036 48C52.815 48 56 43.436 56 38.945C56 36.191 55.008 35 54.501 35C53.818 35 51.461 35.158 49.769 37.19C49.415 37.614 48.785 37.673 48.361 37.318C47.936 36.964 47.879 36.334 48.232 35.909C50.42 33.283 53.345 32.999 54.502 32.999C56.187 33 58 34.86 58 38.945C58 44.111 54.29 50 51.036 50Z" fill="#221122"/>
</svg>
