<svg width="512" height="512" viewBox="0 0 512 512" fill="none" xmlns="http://www.w3.org/2000/svg">
<path d="M448 112V160C447.562 225.131 428.973 288.85 394.32 344C372.456 379.329 346.013 411.609 315.68 440C297.271 457.763 277.297 473.828 256 488C234.703 473.828 214.729 457.763 196.32 440C165.987 411.609 139.544 379.329 117.68 344C83.0274 288.85 64.438 225.131 64 160V112C82.4586 103.947 98.88 91.8639 112.059 76.6362C125.238 61.4086 134.84 43.4232 140.16 24H371.84C377.16 43.4232 386.762 61.4086 399.941 76.6362C413.12 91.8639 429.541 103.947 448 112Z" fill="#FFEFDA"/>
<path d="M448 112V160C447.562 225.131 428.973 288.85 394.32 344C372.456 379.329 346.013 411.609 315.68 440C297.271 457.763 277.297 473.828 256 488C256 488 253.12 486.16 248 482.56C266.237 469.647 283.509 455.422 299.68 440C330.013 411.609 356.456 379.329 378.32 344C412.973 288.85 431.562 225.131 432 160V112C413.541 103.947 397.12 91.8639 383.941 76.6362C370.762 61.4086 361.16 43.4232 355.84 24H371.84C377.16 43.4232 386.762 61.4086 399.941 76.6362C413.12 91.8639 429.541 103.947 448 112Z" fill="#FFDDB0"/>
<path d="M488 344L440 392L488 440H315.68C346.013 411.609 372.456 379.329 394.32 344H488Z" fill="#B82F3D"/>
<path d="M344 184H168C159.163 184 152 191.163 152 200V336C152 344.837 159.163 352 168 352H344C352.837 352 360 344.837 360 336V200C360 191.163 352.837 184 344 184Z" fill="#DC3545"/>
<path d="M360 200V336C359.987 340.24 358.298 344.302 355.3 347.3C352.302 350.298 348.24 351.987 344 352H328C332.24 351.987 336.302 350.298 339.3 347.3C342.298 344.302 343.987 340.24 344 336V200C343.987 195.76 342.298 191.698 339.3 188.7C336.302 185.702 332.24 184.013 328 184H344C348.24 184.013 352.302 185.702 355.3 188.7C358.298 191.698 359.987 195.76 360 200Z" fill="#B82F3D"/>
<path d="M320 104V184H288V120C287.987 115.76 286.298 111.698 283.3 108.7C280.302 105.702 276.24 104.013 272 104H240C235.76 104.013 231.698 105.702 228.7 108.7C225.702 111.698 224.013 115.76 224 120V184H192V104C192 95.5131 195.371 87.3737 201.373 81.3726C207.374 75.3714 215.513 72 224 72H288C296.487 72 304.626 75.3714 310.627 81.3726C316.629 87.3737 320 95.5131 320 104Z" fill="#C6C5CA"/>
<path d="M256 272C269.255 272 280 261.255 280 248C280 234.745 269.255 224 256 224C242.745 224 232 234.745 232 248C232 261.255 242.745 272 256 272Z" fill="#B82F3D"/>
<path d="M196.32 440H24L72 392L24 344H117.68C139.544 379.329 165.987 411.609 196.32 440Z" fill="#B82F3D"/>
<path d="M451.312 392L493.656 349.656C494.774 348.537 495.536 347.112 495.845 345.56C496.153 344.009 495.995 342.4 495.389 340.939C494.784 339.477 493.759 338.228 492.444 337.349C491.128 336.47 489.582 336 488 336H407.816C438.99 282.556 455.604 221.871 456 160V112C456 110.406 455.524 108.849 454.633 107.528C453.742 106.207 452.477 105.182 451 104.584C433.673 97.021 418.26 85.6712 405.896 71.3687C393.532 57.0663 384.53 40.1748 379.552 21.936C379.097 20.2336 378.093 18.7289 376.696 17.6556C375.299 16.5822 373.586 16.0003 371.824 16H140.176C138.414 16.0003 136.701 16.5822 135.304 17.6556C133.907 18.7289 132.903 20.2336 132.448 21.936C127.47 40.1748 118.468 57.0663 106.104 71.3687C93.7396 85.6712 78.3273 97.021 61 104.584C59.5228 105.182 58.2576 106.207 57.3668 107.528C56.476 108.849 56 110.406 56 112V160C56.3958 221.871 73.0097 282.556 104.184 336H24C22.418 336 20.8716 336.47 19.5563 337.349C18.2411 338.228 17.2159 339.477 16.6106 340.939C16.0052 342.4 15.8468 344.009 16.1553 345.56C16.4639 347.112 17.2255 348.537 18.344 349.656L60.688 392L18.344 434.344C17.2255 435.463 16.4639 436.888 16.1553 438.44C15.8468 439.991 16.0052 441.6 16.6106 443.061C17.2159 444.523 18.2411 445.772 19.5563 446.651C20.8716 447.53 22.418 448 24 448H193.552C211.592 465.218 231.065 480.869 251.76 494.784C253.031 495.579 254.501 496 256 496C257.499 496 258.969 495.579 260.24 494.784C280.935 480.869 300.408 465.218 318.448 448H488C489.582 448 491.128 447.53 492.444 446.651C493.759 445.772 494.784 444.523 495.389 443.061C495.995 441.6 496.153 439.991 495.845 438.44C495.536 436.888 494.774 435.463 493.656 434.344L451.312 392ZM77.656 397.656C79.1558 396.156 79.9983 394.121 79.9983 392C79.9983 389.879 79.1558 387.844 77.656 386.344L43.312 352H113.712C131.968 380.843 153.242 407.661 177.176 432H43.312L77.656 397.656ZM256 478.4C228.056 459.272 72 344.16 72 160V117.248C89.4763 108.78 105.057 96.8615 117.804 82.2105C130.551 67.5596 140.199 50.4797 146.168 32H365.832C371.801 50.4797 381.449 67.5596 394.196 82.2105C406.943 96.8615 422.524 108.78 440 117.248V160C440 343.936 283.936 459.2 256 478.4ZM334.792 432C358.726 407.661 380 380.843 398.256 352H468.656L434.312 386.344C432.812 387.844 431.97 389.879 431.97 392C431.97 394.121 432.812 396.156 434.312 397.656L468.688 432H334.792Z" fill="#221122"/>
<path d="M368 336V200C368 193.635 365.471 187.53 360.971 183.029C356.47 178.529 350.365 176 344 176H328V104C327.987 93.3952 323.769 83.2285 316.27 75.7298C308.772 68.2311 298.605 64.0127 288 64H224C213.395 64.0127 203.228 68.2311 195.73 75.7298C188.231 83.2285 184.013 93.3952 184 104V176H168C161.635 176 155.53 178.529 151.029 183.029C146.529 187.53 144 193.635 144 200V336C144 342.365 146.529 348.47 151.029 352.971C155.53 357.471 161.635 360 168 360H344C350.365 360 356.47 357.471 360.971 352.971C365.471 348.47 368 342.365 368 336ZM200 104C200 97.6348 202.529 91.5303 207.029 87.0294C211.53 82.5286 217.635 80 224 80H288C294.365 80 300.47 82.5286 304.971 87.0294C309.471 91.5303 312 97.6348 312 104V176H296V120C296 113.635 293.471 107.53 288.971 103.029C284.47 98.5286 278.365 96 272 96H240C233.635 96 227.53 98.5286 223.029 103.029C218.529 107.53 216 113.635 216 120V176H200V104ZM280 176H232V120C232 117.878 232.843 115.843 234.343 114.343C235.843 112.843 237.878 112 240 112H272C274.122 112 276.157 112.843 277.657 114.343C279.157 115.843 280 117.878 280 120V176ZM160 336V200C160 197.878 160.843 195.843 162.343 194.343C163.843 192.843 165.878 192 168 192H344C346.122 192 348.157 192.843 349.657 194.343C351.157 195.843 352 197.878 352 200V336C352 338.122 351.157 340.157 349.657 341.657C348.157 343.157 346.122 344 344 344H168C165.878 344 163.843 343.157 162.343 341.657C160.843 340.157 160 338.122 160 336Z" fill="#221122"/>
<path d="M256 216C248.221 215.99 240.707 218.82 234.866 223.958C229.026 229.095 225.262 236.188 224.28 243.904C223.298 251.621 225.166 259.43 229.533 265.867C233.901 272.304 240.467 276.925 248 278.864V320H264V278.864C271.533 276.925 278.099 272.304 282.467 265.867C286.834 259.43 288.702 251.621 287.72 243.904C286.738 236.188 282.974 229.095 277.134 223.958C271.293 218.82 263.779 215.99 256 216V216ZM256 264C252.836 264 249.742 263.062 247.111 261.304C244.48 259.545 242.429 257.047 241.218 254.123C240.007 251.199 239.69 247.982 240.307 244.879C240.925 241.775 242.449 238.924 244.686 236.686C246.924 234.449 249.775 232.925 252.879 232.307C255.982 231.69 259.199 232.007 262.123 233.218C265.047 234.429 267.545 236.48 269.304 239.111C271.062 241.742 272 244.835 272 248C272 252.243 270.314 256.313 267.314 259.314C264.313 262.314 260.243 264 256 264Z" fill="#221122"/>
</svg>
