<svg width="512" height="512" viewBox="0 0 512 512" fill="none" xmlns="http://www.w3.org/2000/svg">
<path d="M440 304H488V480H440V304Z" fill="#DC3545"/>
<path d="M456 304H488V480H456V304Z" fill="#B82F3D"/>
<path d="M440 328V456L344 488H224L98.64 443.76C95.5199 442.651 92.8208 440.601 90.915 437.892C89.0093 435.184 87.9908 431.951 88 428.64V421.36C88 418.876 88.5783 416.426 89.6892 414.205C90.8 411.983 92.4129 410.05 94.4 408.56C96.3871 407.07 98.694 406.062 101.138 405.618C103.582 405.174 106.095 405.305 108.48 406L224 440H288L360 400H264C259.76 399.987 255.698 398.298 252.7 395.3C249.702 392.302 248.013 388.24 248 384V380C247.99 376.535 249.108 373.162 251.187 370.39C253.266 367.619 256.191 365.6 259.52 364.64L384 328H440Z" fill="#FFEFDA"/>
<path d="M440 328V456L344 488H224L98.64 443.76C95.5199 442.651 92.8208 440.601 90.915 437.892C89.0093 435.184 87.9908 431.951 88 428.64V421.36C88.0135 420.691 88.067 420.023 88.16 419.36L192 456H312L408 424V328H440Z" fill="#FFDCAF"/>
<path d="M424 83.36V90.64C424 93.1239 423.422 95.5737 422.311 97.7954C421.2 100.017 419.587 101.95 417.6 103.44C415.613 104.93 413.306 105.938 410.862 106.382C408.418 106.826 405.905 106.695 403.52 106L288 72H224L152 112H248C252.24 112.013 256.302 113.702 259.3 116.7C262.298 119.698 263.987 123.76 264 128V132C264.01 135.465 262.892 138.838 260.813 141.61C258.734 144.381 255.809 146.4 252.48 147.36L128 184H72V56L168 24H288L413.36 68.24C416.48 69.3493 419.179 71.3995 421.085 74.1076C422.991 76.8158 424.009 80.0485 424 83.36V83.36Z" fill="#FFEFDA"/>
<path d="M424 83.36V90.64C423.986 91.3093 423.933 91.9771 423.84 92.64L320 56H200L104 88V184H72V56L168 24H288L413.36 68.24C416.48 69.3493 419.179 71.3995 421.085 74.1076C422.991 76.8158 424.009 80.0485 424 83.36Z" fill="#FFDCAF"/>
<path d="M336 232V240C336 296 256 336 256 336C256 336 176 296 176 240V232C176 221.391 180.214 211.217 187.716 203.716C195.217 196.214 205.391 192 216 192C238.08 192 256 209.92 256 240C256 209.92 273.92 192 296 192C306.609 192 316.783 196.214 324.284 203.716C331.786 211.217 336 221.391 336 232Z" fill="#DC3545"/>
<path d="M72 184V208H24V32H72V56V184Z" fill="#B82F3D"/>
<path d="M336 232V240C336 296 256 336 256 336C244.988 330.223 234.495 323.505 224.64 315.92C229.2 318.56 232 320 232 320C232 320 312 280 312 224V216C311.991 207.755 309.45 199.713 304.72 192.96C313.595 194.942 321.53 199.89 327.216 206.987C332.902 214.084 336 222.906 336 232Z" fill="#B82F3D"/>
<path d="M416 60.72L290.64 16.48C289.797 16.1594 288.902 15.9967 288 16H168C167.132 16.0155 166.271 16.1501 165.44 16.4L80 44.88V32C80 29.8783 79.1571 27.8434 77.6569 26.3431C76.1566 24.8428 74.1217 24 72 24H24C21.8783 24 19.8434 24.8428 18.3431 26.3431C16.8429 27.8434 16 29.8783 16 32V208C16 210.122 16.8429 212.157 18.3431 213.657C19.8434 215.157 21.8783 216 24 216H72C74.1217 216 76.1566 215.157 77.6569 213.657C79.1571 212.157 80 210.122 80 208V192H128C128.759 192.017 129.516 191.909 130.24 191.68L254.8 155.04C259.76 153.554 264.111 150.512 267.208 146.363C270.306 142.214 271.986 137.178 272 132V128C271.981 121.641 269.446 115.547 264.95 111.05C260.453 106.554 254.359 104.019 248 104H182.88L226.08 80H286.88L401.2 113.68C404.79 114.721 408.573 114.916 412.251 114.249C415.929 113.583 419.403 112.074 422.4 109.84C425.388 107.611 427.813 104.714 429.48 101.38C431.147 98.0458 432.01 94.3676 432 90.64V83.36C432.003 78.3948 430.465 73.551 427.6 69.4961C424.734 65.4413 420.681 62.3751 416 60.72ZM64 200H32V40H64V200ZM416 90.64C416 91.8819 415.711 93.1069 415.155 94.2177C414.6 95.3285 413.794 96.2948 412.8 97.04C411.806 97.7852 410.653 98.2888 409.431 98.5109C408.209 98.7331 406.952 98.6677 405.76 98.32L290.24 64.32C289.516 64.0909 288.759 63.9827 288 64H224C222.623 63.984 221.268 64.3435 220.08 65.04L148.08 105.04C146.545 105.91 145.34 107.263 144.654 108.889C143.968 110.514 143.838 112.321 144.286 114.028C144.733 115.735 145.732 117.246 147.127 118.326C148.522 119.406 150.236 119.995 152 120H248C250.122 120 252.157 120.843 253.657 122.343C255.157 123.843 256 125.878 256 128V132C255.99 133.728 255.424 135.408 254.387 136.79C253.35 138.173 251.896 139.186 250.24 139.68L126.88 176H80V61.76L169.28 32H286.64L410.64 75.76C412.214 76.3102 413.577 77.3385 414.538 78.7011C415.499 80.0637 416.01 81.6926 416 83.36V90.64Z" fill="#221122"/>
<path d="M488 296H440C437.878 296 435.843 296.843 434.343 298.343C432.843 299.843 432 301.878 432 304V320H384C383.241 319.983 382.484 320.091 381.76 320.32L257.2 356.96C252.24 358.446 247.889 361.488 244.792 365.637C241.694 369.786 240.014 374.822 240 380V384C240.019 390.359 242.554 396.453 247.05 400.95C251.547 405.446 257.641 407.981 264 408H329.12L285.92 432H225.12L110.8 398.32C107.21 397.279 103.427 397.084 99.7491 397.751C96.0709 398.417 92.5971 399.926 89.6 402.16C86.6119 404.389 84.1872 407.286 82.5202 410.62C80.8531 413.954 79.99 417.632 80 421.36V428.64C79.9974 433.605 81.5348 438.449 84.4005 442.504C87.2661 446.559 91.3188 449.625 96 451.28L221.36 495.52C222.203 495.841 223.098 496.003 224 496H344C344.868 495.984 345.729 495.85 346.56 495.6L432 467.12V480C432 482.122 432.843 484.157 434.343 485.657C435.843 487.157 437.878 488 440 488H488C490.122 488 492.157 487.157 493.657 485.657C495.157 484.157 496 482.122 496 480V304C496 301.878 495.157 299.843 493.657 298.343C492.157 296.843 490.122 296 488 296V296ZM432 450.24L342.72 480H225.36L101.36 436.24C99.786 435.69 98.4232 434.661 97.4622 433.299C96.5012 431.936 95.99 430.307 96 428.64V421.36C96 420.118 96.2892 418.893 96.8446 417.782C97.4 416.671 98.2064 415.705 99.2 414.96C100.194 414.215 101.347 413.711 102.569 413.489C103.791 413.267 105.048 413.332 106.24 413.68L221.76 447.68C222.484 447.909 223.241 448.017 224 448H288C289.377 448.016 290.732 447.656 291.92 446.96L363.92 406.96C365.455 406.09 366.66 404.737 367.346 403.111C368.032 401.486 368.162 399.679 367.714 397.972C367.267 396.265 366.268 394.754 364.873 393.674C363.478 392.594 361.764 392.005 360 392H264C261.878 392 259.843 391.157 258.343 389.657C256.843 388.157 256 386.122 256 384V380C256.01 378.272 256.576 376.592 257.613 375.21C258.65 373.827 260.104 372.814 261.76 372.32L385.12 336H432V450.24ZM480 472H448V312H480V472Z" fill="#221122"/>
<path d="M296 184C287.838 183.887 279.8 186.002 272.752 190.118C265.704 194.235 259.912 200.196 256 207.36C252.088 200.196 246.296 194.235 239.248 190.118C232.2 186.002 224.162 183.887 216 184C203.27 184 191.061 189.057 182.059 198.059C173.057 207.061 168 219.27 168 232V240C168 300.24 248.96 341.44 252.4 343.12C253.512 343.698 254.747 344 256 344C257.253 344 258.488 343.698 259.6 343.12C263.04 341.44 344 300.24 344 240V232C344 219.27 338.943 207.061 329.941 198.059C320.939 189.057 308.73 184 296 184ZM328 240C328 283.92 271.04 318.56 256 326.96C240.96 318.56 184 283.92 184 240V232C184 223.513 187.371 215.374 193.373 209.373C199.374 203.371 207.513 200 216 200C235.12 200 248 216.08 248 240C248 242.122 248.843 244.157 250.343 245.657C251.843 247.157 253.878 248 256 248C258.122 248 260.157 247.157 261.657 245.657C263.157 244.157 264 242.122 264 240C264 216.08 276.88 200 296 200C304.487 200 312.626 203.371 318.627 209.373C324.629 215.374 328 223.513 328 232V240Z" fill="#221122"/>
<path d="M360 248H376V264H360V248Z" fill="#221122"/>
<path d="M392 248H440V264H392V248Z" fill="#221122"/>
<path d="M323.838 176.817L335.151 165.503L346.465 176.817L335.151 188.131L323.838 176.817Z" fill="#221122"/>
<path d="M346.456 154.202L380.397 120.261L391.711 131.574L357.77 165.515L346.456 154.202Z" fill="#221122"/>
<path d="M136 248H152V264H136V248Z" fill="#221122"/>
<path d="M72 248H120V264H72V248Z" fill="#221122"/>
<path d="M165.446 335.183L176.759 323.869L188.073 335.183L176.759 346.497L165.446 335.183Z" fill="#221122"/>
<path d="M120.184 380.422L154.125 346.481L165.439 357.795L131.498 391.736L120.184 380.422Z" fill="#221122"/>
</svg>
