<svg width="64" height="64" viewBox="0 0 64 64" fill="none" xmlns="http://www.w3.org/2000/svg">
<path d="M31.5 36C35.0899 36 38 33.0899 38 29.5C38 25.9101 35.0899 23 31.5 23C27.9101 23 25 25.9101 25 29.5C25 33.0899 27.9101 36 31.5 36Z" fill="#E2E9F7"/>
<path d="M27.696 1C18.696 1 9.61603 6.192 9.61603 17.791C9.61603 23.486 10.508 26.745 11.453 30.195C12.455 33.85 13.489 37.628 13.489 44.915V61.706C13.489 62.42 14.068 62.998 14.781 62.998L27 63C26.718 62.411 28.067 50.55 26 49C25.429 48.572 29.429 47.572 30 48C31 54 31 55.534 31 62C31 63.068 35 62.068 35 61V54C35 50.695 34.491 47.471 35 47C37 46 37.51 52.509 38 53C38.279 53.276 40 63 40 63C40 64.068 43 60 43 60C43 53.235 41.012 48.037 41 48C40.778 47.323 44.774 47.323 45 48C45.052 48.156 45.859 54.586 46 61C46.005 61 50 60 50 60C50 53.61 48.022 49.023 48 49C47.495 48.495 50.062 46.08 50.567 46.585C50.681 46.7 53.529 49.291 53.529 55.894C53.529 56.962 54.398 57.831 55.466 57.831C56.534 57.831 57.403 56.962 57.403 55.894C57.403 55.412 55.741 46.804 52.706 44.297C52.185 43.866 51.632 43.436 51.066 42.995C47.559 40.268 43.195 36.873 43.195 30.707V30.061C43.195 26.851 45.798 24.249 49.007 24.249C52.216 24.249 54.819 26.852 54.819 30.061C54.819 33.27 52.216 35.873 49.007 35.873C48.352 35.873 44.809 35.643 44.221 35.444C45.547 37.604 54.753 45.054 55.046 45.285L53 34C55.326 32.506 56 31.966 56 29C56 26.047 55.868 24.512 53.556 23.015C53.348 21.756 52.516 20.66 51.301 20.091C50.341 19.643 49.69 18.976 49.611 18.749C46.559 7.305 38.776 1 27.696 1ZM31.571 22.957C35.137 22.957 38.029 25.849 38.029 29.415C38.029 32.981 35.137 35.873 31.571 35.873C28.005 35.873 25.113 32.981 25.113 29.415C25.113 25.849 28.005 22.957 31.571 22.957Z" fill="#DC3545"/>
<path d="M27.696 3.917C27.696 2.278 26.258 0.985001 24.634 1.204C16.748 2.265 9.61603 7.512 9.61603 17.791C9.61603 19.159 9.66803 20.387 9.75903 21.511C9.87603 22.945 11.153 23.996 12.58 23.818C14.423 23.588 15.778 21.978 15.676 20.124C15.636 19.404 15.615 18.631 15.615 17.792C15.615 10.1 21.26 7.877 24.941 7.245C26.546 6.969 27.696 5.544 27.696 3.917Z" fill="#B82F3D"/>
<path d="M27 64L14.78 63.997C13.516 63.997 12.488 62.97 12.488 61.706V44.915C12.488 37.755 11.471 34.046 10.488 30.46C9.52503 26.94 8.61603 23.618 8.61603 17.791C8.61603 5.501 18.199 0 27.696 0C38.995 0 46.693 6.223 49.985 18.003C50.165 18.056 50.39 18.115 50.576 18.165C51.227 18.338 51.966 18.534 52.518 18.792C53.456 19.231 54.637 20.231 54.879 21.608C54.998 22.288 54.929 23.295 54.01 24.379C54.075 25.543 54.436 26.418 54.816 27.339C55.533 29.078 56.273 30.875 55 34.19V45C55 45.012 55 45.023 54.999 45.036C57.168 47.268 58.392 49.89 58.401 54.545L58.403 55.894C58.403 56.758 58.024 57.575 57.363 58.135C56.704 58.694 55.838 58.934 54.971 58.79C53.584 58.56 52.533 57.279 52.528 55.812C52.508 51.497 50.94 49.272 50.007 48.331C49.851 48.173 49.634 48.111 49.426 48.162C49.128 48.237 49.016 48.421 48.971 48.525C48.928 48.628 48.874 48.834 49.006 49.062C49.891 50.604 50.944 53.263 50.944 57.182L50.972 59.131C50.983 59.917 50.682 60.655 50.126 61.211C49.57 61.766 48.86 62.08 48.045 62.051C46.436 62.023 45.195 60.788 45.159 59.24C45.047 54.462 44.245 50.963 43.592 48.87C43.515 48.62 43.333 48.503 43.232 48.455C43.054 48.372 42.852 48.367 42.667 48.443C42.324 48.585 42.148 48.91 42.213 49.231C42.244 49.385 42.302 49.629 42.378 49.948C42.851 51.93 43.952 56.556 43.733 60.779C43.804 61.579 43.546 62.377 43.018 62.983C42.467 63.615 41.671 63.984 40.833 63.997C40.816 63.997 40.8 63.997 40.782 63.997C39.233 63.997 37.979 62.888 37.802 61.397C37.796 61.345 37.794 61.293 37.796 61.241C38.004 55.816 36.897 50.715 36.41 48.773C36.399 48.732 36.392 48.691 36.387 48.65C36.345 48.299 36.084 48.161 35.975 48.118C35.866 48.074 35.586 47.999 35.322 48.222C35.302 48.239 35.261 48.271 35.24 48.285C35.138 48.375 35.051 48.584 35.067 48.796C35.106 49.283 35.254 49.944 35.424 50.711C35.938 53.013 36.712 56.482 35.875 61.036C35.888 61.787 35.617 62.498 35.105 63.054C34.56 63.645 33.815 63.979 33.007 63.994C32.187 64.005 31.435 63.716 30.872 63.169C30.309 62.622 30 61.889 29.994 61.104C29.994 61.047 29.998 60.991 30.008 60.934C30.725 56.586 30.203 51.745 28.71 48.886C28.563 48.605 28.299 48.546 28.192 48.533C28.091 48.524 27.826 48.519 27.627 48.749C27.439 48.965 27.39 49.226 27.479 49.449C28.815 52.796 29.007 58.063 27.981 63.196C27.887 63.663 27.477 64 27 64ZM27.696 2C19.194 2 10.616 6.883 10.616 17.791C10.616 23.35 11.491 26.546 12.417 29.929C13.436 33.645 14.488 37.486 14.488 44.915V61.706C14.488 61.866 14.619 61.997 14.78 61.997L26.169 62C26.939 57.547 26.736 52.983 25.621 50.19C25.253 49.265 25.437 48.218 26.101 47.456C26.687 46.779 27.558 46.449 28.423 46.547C29.303 46.65 30.072 47.178 30.482 47.96C32.149 51.149 32.754 56.441 31.997 61.159C32.016 61.379 32.11 61.582 32.27 61.737C32.446 61.909 32.683 61.968 32.925 61.996C33.229 61.99 33.464 61.885 33.636 61.698C33.806 61.515 33.89 61.276 33.874 61.026C33.869 60.943 33.874 60.86 33.89 60.778C34.685 56.572 33.985 53.436 33.473 51.147C33.286 50.307 33.124 49.583 33.074 48.955C33.008 48.1 33.359 47.26 34.016 46.707C34.782 46.066 35.809 45.903 36.711 46.259C37.598 46.61 38.227 47.404 38.364 48.343C38.876 50.396 40 55.629 39.8 61.226C39.883 61.673 40.274 61.999 40.736 61.999C40.742 61.999 40.747 61.999 40.752 61.999C41.081 61.994 41.332 61.878 41.513 61.671C41.693 61.464 41.774 61.2 41.741 60.928C41.733 60.868 41.731 60.81 41.735 60.75C41.956 56.797 40.89 52.323 40.435 50.412C40.351 50.062 40.288 49.794 40.254 49.626C40 48.369 40.681 47.101 41.87 46.61C42.604 46.305 43.398 46.324 44.083 46.645C44.763 46.964 45.28 47.558 45.504 48.276C46.194 50.491 47.043 54.183 47.161 59.194C47.172 59.666 47.55 60.043 48.02 60.05C48.349 60.045 48.545 59.963 48.714 59.794C48.884 59.625 48.976 59.399 48.973 59.159L48.945 57.196C48.945 53.703 48.035 51.387 47.272 50.057C46.862 49.342 46.81 48.499 47.13 47.743C47.451 46.985 48.097 46.433 48.9 46.231C49.828 45.998 50.782 46.267 51.428 46.922C52.575 48.08 54.504 50.775 54.528 55.802C54.53 56.299 54.869 56.744 55.299 56.816C55.674 56.878 55.946 56.713 56.07 56.607C56.282 56.428 56.403 56.168 56.403 55.892L56.401 54.55C56.39 49.548 54.933 47.432 52.069 45.067C51.583 44.664 51.07 44.264 50.545 43.855L50.452 43.783C46.968 41.074 42.195 37.363 42.195 30.706V30.305C42.195 29.752 42.642 29.305 43.195 29.305C43.748 29.305 44.195 29.752 44.195 30.305V30.706C44.195 35.172 46.654 38.038 49.411 40.385C49.532 40.419 49.649 40.477 49.755 40.558C49.888 40.662 50.792 41.338 51.783 42.081C52.189 42.386 52.61 42.701 53 42.993V34C53 33.873 53.024 33.747 53.071 33.629C54.142 30.952 53.624 29.693 52.967 28.101C52.514 27.001 52 25.755 52 24C52 23.734 52.105 23.48 52.293 23.293C52.773 22.812 52.981 22.361 52.91 21.955C52.813 21.403 52.214 20.857 51.672 20.604C51.281 20.421 50.606 20.242 50.063 20.097C48.964 19.805 48.414 19.659 48.199 19.041C45.216 7.869 38.134 2 27.696 2Z" fill="#221122"/>
<path d="M14.644 20.399C14.109 20.399 13.665 19.974 13.646 19.434C13.625 18.882 14.057 18.419 14.61 18.4L16.609 18.329C17.129 18.302 17.625 18.739 17.643 19.293C17.664 19.845 17.232 20.308 16.679 20.327L14.68 20.398C14.668 20.399 14.656 20.399 14.644 20.399Z" fill="#221122"/>
<path d="M17.08 15.475C16.984 15.475 16.887 15.461 16.791 15.432L14.876 14.853C14.347 14.693 14.048 14.135 14.208 13.607C14.368 13.079 14.93 12.778 15.454 12.939L17.369 13.518C17.898 13.678 18.197 14.236 18.037 14.764C17.906 15.196 17.51 15.475 17.08 15.475Z" fill="#221122"/>
<path d="M19.566 11.617C19.282 11.617 19.001 11.497 18.802 11.263L17.508 9.738C17.151 9.317 17.202 8.686 17.624 8.329C18.045 7.973 18.676 8.024 19.033 8.445L20.327 9.97C20.684 10.391 20.633 11.022 20.211 11.379C20.024 11.539 19.795 11.617 19.566 11.617Z" fill="#221122"/>
<path d="M23.817 9.519C23.375 9.519 22.969 9.223 22.851 8.775L22.34 6.841C22.199 6.307 22.518 5.759 23.051 5.618C23.585 5.478 24.133 5.795 24.274 6.329L24.785 8.263C24.926 8.797 24.607 9.345 24.074 9.486C23.988 9.508 23.902 9.519 23.817 9.519Z" fill="#221122"/>
<path d="M32.905 30.524C33.7202 30.524 34.381 29.8632 34.381 29.048C34.381 28.2328 33.7202 27.572 32.905 27.572C32.0898 27.572 31.429 28.2328 31.429 29.048C31.429 29.8632 32.0898 30.524 32.905 30.524Z" fill="#221122"/>
<path d="M50.619 30.524C51.4342 30.524 52.095 29.8632 52.095 29.048C52.095 28.2328 51.4342 27.572 50.619 27.572C49.8038 27.572 49.143 28.2328 49.143 29.048C49.143 29.8632 49.8038 30.524 50.619 30.524Z" fill="#221122"/>
<path d="M31.571 36.874C27.459 36.874 24.113 33.528 24.113 29.415C24.113 25.303 27.459 21.957 31.571 21.957C35.683 21.957 39.029 25.303 39.029 29.415C39.029 33.528 35.684 36.874 31.571 36.874ZM31.571 23.957C28.561 23.957 26.113 26.405 26.113 29.415C26.113 32.425 28.561 34.874 31.571 34.874C34.581 34.874 37.029 32.425 37.029 29.415C37.029 26.405 34.581 23.957 31.571 23.957Z" fill="#221122"/>
<path d="M49.5 36C53.0899 36 56 33.0899 56 29.5C56 25.9101 53.0899 23 49.5 23C45.9101 23 43 25.9101 43 29.5C43 33.0899 45.9101 36 49.5 36Z" fill="#E2E9F7"/>
<path d="M50.905 30.524C51.7202 30.524 52.381 29.8632 52.381 29.048C52.381 28.2328 51.7202 27.572 50.905 27.572C50.0898 27.572 49.429 28.2328 49.429 29.048C49.429 29.8632 50.0898 30.524 50.905 30.524Z" fill="#221122"/>
<path d="M49.571 36.874C45.459 36.874 42.113 33.528 42.113 29.415C42.113 25.303 45.459 21.957 49.571 21.957C53.683 21.957 57.029 25.303 57.029 29.415C57.029 33.528 53.684 36.874 49.571 36.874ZM49.571 23.957C46.561 23.957 44.113 26.405 44.113 29.415C44.113 32.425 46.561 34.874 49.571 34.874C52.581 34.874 55.029 32.425 55.029 29.415C55.029 26.405 52.581 23.957 49.571 23.957Z" fill="#221122"/>
</svg>
